<?xml version="1.0" encoding="utf-8" standalone="no"?>
<!DOCTYPE svg PUBLIC "-//W3C//DTD SVG 1.1//EN"
  "http://www.w3.org/Graphics/SVG/1.1/DTD/svg11.dtd">
<!-- Created with matplotlib (http://matplotlib.org/) -->
<svg height="432pt" version="1.1" viewBox="0 0 576 432" width="576pt" xmlns="http://www.w3.org/2000/svg" xmlns:xlink="http://www.w3.org/1999/xlink">
 <defs>
  <style type="text/css">
*{stroke-linecap:butt;stroke-linejoin:round;}
  </style>
 </defs>
 <g id="figure_1">
  <g id="patch_1">
   <path d="
M0 432
L576 432
L576 0
L0 0
z
" style="fill:#ffffff;"/>
  </g>
  <g id="axes_1">
   <g id="patch_2">
    <path d="
M35.136 412.56
L576 412.56
L576 12.528
L35.136 12.528
z
" style="fill:#ffffff;"/>
   </g>
   <g id="line2d_1">
    <path clip-path="url(#p0d9bf35fa7)" d="
M160.935 295.87
L163.538 294.388
L164.63 293.689
L166.822 292.412
L177.7 286.962
L178.069 286.712
L178.957 286.334
L180.391 285.524
L182.015 284.669
L184.224 283.506
L194.921 277.865
L197.573 276.25
L200.16 274.888
L203.135 273.4
L207.648 271.117
L210.644 269.421
L215.235 266.915
L216.768 266.047
L217.788 265.407
L219.183 264.604
L219.446 264.424
L221.773 263.177
L222.576 262.743
L223.074 262.552
L224.341 261.821
L229.009 259.44
L232.532 257.373
L235.688 255.121
L237.869 253.432
L239.642 252.114
L240.096 251.8
L240.799 251.193
L242.152 250.495
L248.193 246.707
L251.443 244.249
L253.768 241.884
L254.973 240.484
L258.12 235.775
L258.379 235.337
L261.219 230.726
L262.167 228.81
L263.068 226.717
L263.69 224.878
L264.174 223.433
L264.583 218.707
L264.307 214.772
L263.811 213.225
L262.706 211.063
L255.165 198.555
L254.364 197.798
L253.731 197.495
L252.822 197.228
L251.733 197.292
L250.573 197.821
L249.252 198.49
L242.15 202.794
L240.453 203.749
L238.806 204.685
L237.045 205.675
L233.598 207.769
L233.102 208.099
L232.112 208.915
L231.486 209.775
L231.282 210.111
L230.712 212.327
L230.416 214.39
L230.073 219.727
L230.177 222.188
L230.497 223.909
L231.377 226.284
L231.709 226.985
L232.274 228.158
L233.39 230.24
L236.491 235.9
L238.519 238.627
L239.292 239.093
L239.673 239.153
L240.167 239.305
L240.694 239.33
L240.818 239.245
L241.464 239.229
L242.865 238.874
L247.538 237.166
L248.612 237.003
L252.481 238.896
L253.26 239.818
L254.006 241.335
L254.295 241.481
L254.175 241.664
L254.411 241.862
L254.301 242.136
L254.339 242.371
L254.163 242.454
L253.917 242.745
L253.485 243.074
L252.855 243.303
L252.561 243.539
L251.82 244.054
L250.358 244.86
L248.601 245.644
L247.312 246.146
L241.531 248.669
L239.16 249.536
L237.736 249.528
L231.455 240.616
L228.709 236.131
L227.281 234.311
L226.575 233.584
L225.379 232.797
L223.672 232.071
L220.625 230.884
L219.611 230.309
L217.657 228.674
L215.756 226.599
L214.012 224.146
L210.507 218.153
L207.573 213.606
L206.516 212.658
L205.773 212.229
L204.606 211.751
L203.71 211.788
L202.832 211.68
L201.484 211.799
L201.024 211.858
L200.79 212.173
L199.968 212.468
L198.383 213.076
L197.41 213.527
L195.305 214.698
L193.581 215.587
L188.82 218.434
L186.422 219.774
L180.12 223.154
L179.23 223.616
L169.518 229.067
L168.115 229.646
L166.359 230.632
L156.873 235.595
L155.761 236.099
L155.445 236.278
L154.628 236.555
L154.436 236.809
L153.19 237.265
L152.894 237.494
L151.619 237.956
L149.945 238.801
L149.313 239.023
L143.402 242.25
L140.017 243.966
L132.246 247.814
L124.727 251.8
L122.259 253.083
L118.875 254.879
L116.671 256.016
L106.668 261.322
L106.304 261.44
L104.627 262.303
L101.678 263.778
L99.3055 265.049
L94.6518 267.291
L93.1318 267.975
L90.5085 267.219
L89.176 266.83
L87.5775 266.539
L78.9021 265.515
L74.9127 264.915
L72.8672 264.821
L69.086 264.822
L67.3023 265.2
L63.5166 266.588
L62.1337 267.192
L59.6971 268.066
L58.2217 268.301
L56.5066 268.278
L55.0668 267.932
L54.0945 267.455
L52.4955 266.234
L50.6663 264.02
L47.4247 259.059
L47.294 258.104
L47.3466 257.345
L49.037 255.435
L51.4943 253.946
L53.6935 252.971
L54.4257 252.663
L57.9873 250.701
L59.1515 249.984
L66.321 245.512
L67.0111 244.557
L67.2831 243.839
L67.2353 242.961
L67.1762 241.828
L67.1002 241.586
L67.0908 241.154
L66.4429 239.652
L65.3875 237.599
L65.1382 237.26
L64.5335 236.137
L60.6021 230.012
L57.6009 225.099
L57.0322 223.714
L56.967 221.304
L57.2487 219.503
L58.0933 216.928
L59.0921 215.174
L59.6541 214.462
L64.2945 211.335
L65.0187 210.942
L66.4026 210.207
L67.8444 209.468
L70.1612 208.318
L83.4327 200.959
L85.8405 199.752
L87.5176 198.95
L89.2382 198.473
L90.5097 198.274
L91.178 198.465
L91.6948 198.108
L92.6939 197.873
L93.7211 197.511
L111.968 187.734
L113.235 186.915
L117.686 184.206
L118.998 183.149
L119.182 183.113
L119.307 182.856
L119.873 182.368
L120.139 181.881
L120.598 181.277
L120.82 180.91
L121.166 180.665
L121.792 179.676
L125.152 177.127
L126.102 176.533
L127.747 175.865
L128.413 175.537
L130.484 174.429
L133.893 172.469
L137.014 170.645
L138.996 168.151
L140.814 166.564
L141.912 165.927
L143.304 165.118
L148.663 162.461
L150.515 161.694
L152.358 160.841
L153.945 160
L155.052 159.417
L160.374 156.576
L161.301 156.104
L179.156 146.386
L180.713 145.498
L183 144.286
L184.983 143.268
L190.885 140.163
L191.123 140.151
L194.971 139.21
L196.141 138.616
L198.23 137.225
L199.626 136.235
L200.738 135.662
L205.243 134.361
L206.138 134.179
L210.387 133.638
L211.271 133.336
L212.892 132.934
L214.791 131.903
L216.179 131.213
L217.801 130.339
L230.042 123.861
L231.687 122.88
L233.068 122.217
L234.49 121.4
L235.115 120.909
L237.811 119.501
L238.338 119.302
L243.8 116.324
L247.896 114.164
L251.723 111.958
L253.89 110.806
L257.943 108.443
L258.685 108.142
L265.155 104.564
L269.751 102.155
L271.344 101.36
L294.292 89.5856
L301.043 85.8382
L310.067 81.4891
L311.646 80.5465
L316.083 78.0447
L316.921 77.3972
L319.253 76.8988
L320.851 76.1149
L325.015 73.5977
L328.651 71.7045
L329.806 71.1625
L332.438 69.6942
L334.771 68.402
L336.404 67.8519
L337.314 67.843
L338.491 68.2595
L340.048 69.4589
L341.201 70.4484
L341.642 70.6388
L342.056 70.6242
L342.709 70.8058
L345.124 70.9723
L348.188 71.0029
L349.612 71.5856
L350.795 72.3978
L351.791 73.4997
L352.005 74.1443
L352.04 74.6766
L351.683 75.0229
L350.95 76.7334
L350.096 78.0956
L346.587 82.1706
L345.643 83.7048
L345.438 84.4593
L345.014 85.438
L344.783 86.3024
L343.068 91.844
L341.784 95.6034
L341.613 96.2182
L340.59 98.7296
L340.728 100.572
L340.92 101.529
L341.478 103.141
L342.469 105.573
L343.404 107.419
L344.691 109.88
L347.925 115.323
L348.822 116.468
L349.39 117.194
L349.725 117.744
L349.947 119.009
L349.962 119.475
L348.406 121.974
L348.178 123.337
L348.358 124.387
L348.725 125.521
L349.3 126.753
L350.444 128.124
L351.472 128.932
L352.446 129.518
L353.369 129.965
L355.663 130.757
L357.02 131.06
L359.418 131.133
L360.314 131.115
L366.357 130.674
L372.26 130.542
L376.761 129.688
L379.315 128.738
L386.117 125.771
L390.981 123.792
L393.762 122.438
L395.704 121.269
L396.811 120.451
L400.509 117.303
L405.6 113.436
L410.764 108.559
L412.324 106.853
L413.729 105.126
L414.481 104.079
L418.874 97.738
L422.463 93.5371
L424.643 91.5831
L429.652 88.4536
L432.283 86.9628
L436.186 85.1233
L442.292 82.3339
L447.708 79.9852
L451.402 78.022
L452.257 77.3977
L452.913 76.6697
L453.425 75.7199
L454.421 73.1314
L454.997 70.7724
L455.081 69.5676
L454.903 68.114
L454.461 67.0065
L452.937 63.9196
L450.086 59.3149
L448.737 57.1841
L446.276 52.6592
L445.636 51.302
L445.247 50.6303
L444.53 49.0913
L443.764 48.3626
L443.337 48.0942
L441.489 47.3923
L438.613 47.2132
L436.932 47.4349
L435.562 47.9339
L434.452 48.1712
L431.706 48.9788
L427.705 49.7667
L425.666 50.0085
L423.288 49.9653
L422.281 49.692
L421.419 49.359
L420.43 48.6932
L419.221 47.5805
L416.467 43.5214
L415.554 41.9309
L415.209 41.0552
L415.023 39.9473
L414.97 38.2137
L415.512 37.1453
L416.067 36.3552
L417.645 35.0885
L419.15 34.1569
L420.778 33.2676
L426.523 30.4468
L427.988 29.8435
L429.979 29.4091
L431.49 29.8253
L432.88 30.6224
L434.308 31.8528
L435.727 33.5079
L437.232 35.5313
L440.504 40.5097
L443.566 45.7863
L444.53 47.4241
L445.525 48.9745
L448.375 53.5529
L452.47 60.2109
L454.325 62.669
L456.534 64.6931
L458.278 65.8665
L459.004 66.2911
L459.47 66.7303
L460.073 66.9083
L462.702 68.4303
L464.227 69.7043
L464.816 70.1837
L466.318 71.9333
L468.564 75.4229
L474.557 85.668
L478.957 93.4358
L481.079 96.5825
L484.881 102.78
L486.011 104.724
L488.279 109.288
L488.869 109.991
L489.308 110.817
L492.05 115.061
L493.491 117.505
L497.405 124.881
L500.367 129.987
L501.45 131.999
L502.855 134.927
L503.439 136.029
L503.795 136.637
L503.996 137.341
L504.931 138.056
L509.584 146.393
L509.836 146.928
L514.805 153.424
L515.819 155.154
L516.464 156.242
L517.225 157.626
L517.962 158.858
L521.021 164.988
L521.252 165.32
L521.69 166.289
L522.836 168.05
L523.054 168.443
L523.906 169.566
L526.74 172.879
L527.104 173.147
L528.774 175.609
L530.073 177.695
L532.965 182.141
L534.777 185.004
L539.849 194.054
L540.257 195.844
L540.288 196.322
L540.472 196.935
L540.441 197.451
L540.863 199.482
L542.441 202.861
L543.138 204.049
L544.25 205.883
L545.926 208.576
L548.156 212.693
L548.775 214.07
L552.47 218.72
L553.108 219.754
L554.651 223.185
L554.902 224.453
L555.166 225.152
L555.243 225.879
L554.801 228.474
L554.397 229.542
L552.872 231.403
L550.809 233.22
L549.006 234.414
L546.528 235.799
L540.941 239.083
L535.906 241.772
L534.896 242.277
L533.276 243.126
L532.305 243.671
L531.879 243.986
L529.334 245.241
L528.942 245.544
L527.974 245.907
L523.091 248.293
L521.544 249.049
L519.495 250.169
L518.406 250.919
L518.161 251.291
L516.085 252.73
L515.311 253.102
L511.689 254.97
L510.571 255.617
L508.552 256.804
L507.281 257.599
L506.049 258.293
L500.495 261.864
L495.529 264.928
L490.906 267.274
L489.478 268.163
L488.373 268.74
L486.58 269.777
L485.66 270.217
L484.84 270.959
L479.314 274.402
L478.292 274.766
L477.647 275.345
L474.776 276.765
L469.738 279.249
L466.204 281.361
L457.17 286.526
L456.778 286.884
L456.017 287.208
L451.498 289.733
L443.71 294.666
L439.171 297.327
L438.196 297.956
L436.882 298.714
L436.408 299.004
L433.678 300.078
L429.606 301.593
L428.412 302.163
L427.466 302.582
L425.011 303.629
L424.457 303.761
L423.301 304.291
L421.819 304.676
L420.28 305.386
L415.968 307.618
L413.875 308.839
L405.102 313.958
L404.756 314.109
L404.088 314.546
L402.727 315.347
L401.55 316.103
L397.704 318.176
L396.857 318.668
L358.037 341.022
L355.903 342.209
L353.45 343.751
L352.014 345.048
L351.046 346.386
L350.741 346.746
L347.587 349.088
L345.86 350.118
L341.507 352.935
L340.306 353.615
L336.94 355.575
L334.658 356.817
L333.898 357.214
L332.696 357.751
L331.594 358.25
L330.756 358.791
L330.367 358.932
L330.063 359.189
L328.419 360.163
L326.673 361.128
L319.757 364.95
L313.292 368.712
L311.248 369.948
L310.164 370.572
L308.824 371.337
L308 371.804
L306.168 373.253
L306.173 373.274
L305.534 374.011
L304.229 375.67
L303.078 376.785
L302.02 377.677
L301.515 378.014
L300.345 378.52
L298.843 379.312
L293.384 382.198
L292.273 382.993
L291.746 383.243
L290.286 384.199
L289.289 384.713
L288.575 385.175
L287.773 385.679
L287.362 385.979
L286.843 386.219
L285.957 386.829
L284.521 387.765
L283.409 388.456
L283.024 388.62
L282.703 388.923
L281.889 389.37
L281.065 390.451
L280.301 390.84
L279.245 391.663
L277.954 392.069
L277.501 391.918
L277.063 391.945
L275.816 391.795
L275.083 391.774
L274.519 391.101
L274.36 391.309
L273.567 390.925
L273.095 390.696
L271.911 389.798
L270.063 387.314
L266.049 380.769
L265.573 379.892
L265.573 379.892" style="fill:none;stroke:#0000ff;stroke-linecap:square;"/>
   </g>
   <g id="matplotlib.axis_1">
    <g id="xtick_1">
     <g id="line2d_2">
      <defs>
       <path d="
M0 0
L0 -4" id="m93b0483c22" style="stroke:#000000;stroke-width:0.5;"/>
      </defs>
      <g>
       <use style="stroke:#000000;stroke-width:0.5;" x="35.136" xlink:href="#m93b0483c22" y="412.56"/>
      </g>
     </g>
     <g id="line2d_3">
      <defs>
       <path d="
M0 0
L0 4" id="m741efc42ff" style="stroke:#000000;stroke-width:0.5;"/>
      </defs>
      <g>
       <use style="stroke:#000000;stroke-width:0.5;" x="35.136" xlink:href="#m741efc42ff" y="12.528"/>
      </g>
     </g>
     <g id="text_1">
      <!-- −100 -->
      <defs>
       <path d="
M52.9375 0
L13.5781 0
L13.5781 7.42188
L28.7188 7.42188
L28.7188 56.1562
L13.5781 56.1562
L13.5781 62.7969
Q16.6562 62.7969 20.1719 63.2969
Q23.6875 63.8125 25.4844 64.7969
Q27.7344 66.0156 29.0312 67.8906
Q30.3281 69.7812 30.5156 72.9531
L38.0938 72.9531
L38.0938 7.42188
L52.9375 7.42188
z
" id="Verdana-31"/>
       <path d="
M56.9844 36.375
Q56.9844 16.7969 50.8594 7.64062
Q44.7344 -1.51562 31.8438 -1.51562
Q18.75 -1.51562 12.7188 7.76562
Q6.6875 17.0469 6.6875 36.2812
Q6.6875 55.6719 12.7812 64.9219
Q18.8906 74.1719 31.8438 74.1719
Q44.9219 74.1719 50.9531 64.7656
Q56.9844 55.375 56.9844 36.375
M44.1406 14.2031
Q45.8438 18.1719 46.4531 23.5156
Q47.0781 28.8594 47.0781 36.375
Q47.0781 43.7969 46.4531 49.2656
Q45.8438 54.7344 44.0938 58.5469
Q42.3906 62.3125 39.4219 64.2031
Q36.4688 66.1094 31.8438 66.1094
Q27.25 66.1094 24.2344 64.2031
Q21.2344 62.3125 19.4844 58.4531
Q17.8281 54.8281 17.2188 49.0156
Q16.6094 43.2188 16.6094 36.2812
Q16.6094 28.6562 17.1406 23.5312
Q17.6719 18.4062 19.4375 14.3594
Q21.0469 10.5469 24 8.54688
Q26.9531 6.54688 31.8438 6.54688
Q36.4219 6.54688 39.4531 8.45312
Q42.4844 10.3594 44.1406 14.2031" id="Verdana-30"/>
       <path d="
M71.0938 27.9375
L10.75 27.9375
L10.75 35.75
L71.0938 35.75
z
" id="Verdana-2212"/>
      </defs>
      <g transform="translate(19.8219375 425.678125)scale(0.12 -0.12)">
       <use xlink:href="#Verdana-2212"/>
       <use x="81.8359375" xlink:href="#Verdana-31"/>
       <use x="145.41015625" xlink:href="#Verdana-30"/>
       <use x="208.984375" xlink:href="#Verdana-30"/>
      </g>
     </g>
    </g>
    <g id="xtick_2">
     <g id="line2d_4">
      <g>
       <use style="stroke:#000000;stroke-width:0.5;" x="95.232" xlink:href="#m93b0483c22" y="412.56"/>
      </g>
     </g>
     <g id="line2d_5">
      <g>
       <use style="stroke:#000000;stroke-width:0.5;" x="95.232" xlink:href="#m741efc42ff" y="12.528"/>
      </g>
     </g>
     <g id="text_2">
      <!-- −50 -->
      <defs>
       <path d="
M56.5 23.0938
Q56.5 18.0156 54.6406 13.375
Q52.7812 8.73438 49.5625 5.5625
Q46.0469 2.15625 41.1875 0.3125
Q36.3281 -1.51562 29.9375 -1.51562
Q23.9688 -1.51562 18.4531 -0.265625
Q12.9375 0.984375 9.125 2.73438
L9.125 13.0312
L9.8125 13.0312
Q13.8125 10.5 19.1875 8.71875
Q24.5625 6.9375 29.7344 6.9375
Q33.2031 6.9375 36.4531 7.90625
Q39.7031 8.89062 42.2344 11.3281
Q44.3906 13.4219 45.4844 16.3438
Q46.5781 19.2812 46.5781 23.1406
Q46.5781 26.9062 45.2812 29.4844
Q44 32.0781 41.7031 33.6406
Q39.1562 35.5 35.5156 36.25
Q31.8906 37.0156 27.3906 37.0156
Q23.0938 37.0156 19.1094 36.4219
Q15.1406 35.8438 12.25 35.25
L12.25 72.7031
L56 72.7031
L56 64.1562
L21.6875 64.1562
L21.6875 44.8281
Q23.7812 45.0156 25.9688 45.1094
Q28.1719 45.2188 29.7812 45.2188
Q35.6875 45.2188 40.125 44.2188
Q44.5781 43.2188 48.2969 40.6719
Q52.2031 37.9844 54.3438 33.7344
Q56.5 29.5 56.5 23.0938" id="Verdana-35"/>
      </defs>
      <g transform="translate(83.732625 425.678125)scale(0.12 -0.12)">
       <use xlink:href="#Verdana-2212"/>
       <use x="81.8359375" xlink:href="#Verdana-35"/>
       <use x="145.41015625" xlink:href="#Verdana-30"/>
      </g>
     </g>
    </g>
    <g id="xtick_3">
     <g id="line2d_6">
      <g>
       <use style="stroke:#000000;stroke-width:0.5;" x="155.328" xlink:href="#m93b0483c22" y="412.56"/>
      </g>
     </g>
     <g id="line2d_7">
      <g>
       <use style="stroke:#000000;stroke-width:0.5;" x="155.328" xlink:href="#m741efc42ff" y="12.528"/>
      </g>
     </g>
     <g id="text_3">
      <!-- 0 -->
      <g transform="translate(152.3101875 425.678125)scale(0.12 -0.12)">
       <use xlink:href="#Verdana-30"/>
      </g>
     </g>
    </g>
    <g id="xtick_4">
     <g id="line2d_8">
      <g>
       <use style="stroke:#000000;stroke-width:0.5;" x="215.424" xlink:href="#m93b0483c22" y="412.56"/>
      </g>
     </g>
     <g id="line2d_9">
      <g>
       <use style="stroke:#000000;stroke-width:0.5;" x="215.424" xlink:href="#m741efc42ff" y="12.528"/>
      </g>
     </g>
     <g id="text_4">
      <!-- 50 -->
      <g transform="translate(208.73775 425.678125)scale(0.12 -0.12)">
       <use xlink:href="#Verdana-35"/>
       <use x="63.57421875" xlink:href="#Verdana-30"/>
      </g>
     </g>
    </g>
    <g id="xtick_5">
     <g id="line2d_10">
      <g>
       <use style="stroke:#000000;stroke-width:0.5;" x="275.52" xlink:href="#m93b0483c22" y="412.56"/>
      </g>
     </g>
     <g id="line2d_11">
      <g>
       <use style="stroke:#000000;stroke-width:0.5;" x="275.52" xlink:href="#m741efc42ff" y="12.528"/>
      </g>
     </g>
     <g id="text_5">
      <!-- 100 -->
      <g transform="translate(265.28625 425.678125)scale(0.12 -0.12)">
       <use xlink:href="#Verdana-31"/>
       <use x="63.57421875" xlink:href="#Verdana-30"/>
       <use x="127.1484375" xlink:href="#Verdana-30"/>
      </g>
     </g>
    </g>
    <g id="xtick_6">
     <g id="line2d_12">
      <g>
       <use style="stroke:#000000;stroke-width:0.5;" x="335.616" xlink:href="#m93b0483c22" y="412.56"/>
      </g>
     </g>
     <g id="line2d_13">
      <g>
       <use style="stroke:#000000;stroke-width:0.5;" x="335.616" xlink:href="#m741efc42ff" y="12.528"/>
      </g>
     </g>
     <g id="text_6">
      <!-- 150 -->
      <g transform="translate(325.38225 425.678125)scale(0.12 -0.12)">
       <use xlink:href="#Verdana-31"/>
       <use x="63.57421875" xlink:href="#Verdana-35"/>
       <use x="127.1484375" xlink:href="#Verdana-30"/>
      </g>
     </g>
    </g>
    <g id="xtick_7">
     <g id="line2d_14">
      <g>
       <use style="stroke:#000000;stroke-width:0.5;" x="395.712" xlink:href="#m93b0483c22" y="412.56"/>
      </g>
     </g>
     <g id="line2d_15">
      <g>
       <use style="stroke:#000000;stroke-width:0.5;" x="395.712" xlink:href="#m741efc42ff" y="12.528"/>
      </g>
     </g>
     <g id="text_7">
      <!-- 200 -->
      <defs>
       <path d="
M57.0781 0
L7.85938 0
L7.85938 10.2031
Q12.9844 14.5938 18.1406 18.9844
Q23.2969 23.3906 27.7344 27.7344
Q37.1094 36.8125 40.5781 42.1562
Q44.0469 47.5156 44.0469 53.7188
Q44.0469 59.375 40.3125 62.5625
Q36.5781 65.7656 29.8906 65.7656
Q25.4375 65.7656 20.2656 64.2031
Q15.0938 62.6406 10.1562 59.4219
L9.67188 59.4219
L9.67188 69.6719
Q13.1406 71.3906 18.9219 72.7969
Q24.7031 74.2188 30.125 74.2188
Q41.3125 74.2188 47.6562 68.8125
Q54 63.4219 54 54.2031
Q54 50.0469 52.9531 46.4531
Q51.9062 42.875 49.8594 39.6562
Q47.9531 36.625 45.3906 33.6875
Q42.8281 30.7656 39.1562 27.2031
Q33.9375 22.0781 28.3594 17.2656
Q22.7969 12.4531 17.9688 8.34375
L57.0781 8.34375
z
" id="Verdana-32"/>
      </defs>
      <g transform="translate(385.135125 425.678125)scale(0.12 -0.12)">
       <use xlink:href="#Verdana-32"/>
       <use x="63.57421875" xlink:href="#Verdana-30"/>
       <use x="127.1484375" xlink:href="#Verdana-30"/>
      </g>
     </g>
    </g>
    <g id="xtick_8">
     <g id="line2d_16">
      <g>
       <use style="stroke:#000000;stroke-width:0.5;" x="455.808" xlink:href="#m93b0483c22" y="412.56"/>
      </g>
     </g>
     <g id="line2d_17">
      <g>
       <use style="stroke:#000000;stroke-width:0.5;" x="455.808" xlink:href="#m741efc42ff" y="12.528"/>
      </g>
     </g>
     <g id="text_8">
      <!-- 250 -->
      <g transform="translate(445.231125 425.678125)scale(0.12 -0.12)">
       <use xlink:href="#Verdana-32"/>
       <use x="63.57421875" xlink:href="#Verdana-35"/>
       <use x="127.1484375" xlink:href="#Verdana-30"/>
      </g>
     </g>
    </g>
    <g id="xtick_9">
     <g id="line2d_18">
      <g>
       <use style="stroke:#000000;stroke-width:0.5;" x="515.904" xlink:href="#m93b0483c22" y="412.56"/>
      </g>
     </g>
     <g id="line2d_19">
      <g>
       <use style="stroke:#000000;stroke-width:0.5;" x="515.904" xlink:href="#m741efc42ff" y="12.528"/>
      </g>
     </g>
     <g id="text_9">
      <!-- 300 -->
      <defs>
       <path d="
M50.6875 35.0156
Q53.0312 32.9062 54.5469 29.7344
Q56.0625 26.5625 56.0625 21.5312
Q56.0625 16.5469 54.25 12.3906
Q52.4375 8.25 49.1719 5.17188
Q45.5156 1.76562 40.5469 0.125
Q35.5938 -1.51562 29.6875 -1.51562
Q23.6406 -1.51562 17.7812 -0.0625
Q11.9219 1.375 8.15625 3.07812
L8.15625 13.2812
L8.89062 13.2812
Q13.0312 10.5469 18.6406 8.73438
Q24.2656 6.9375 29.5 6.9375
Q32.5625 6.9375 36.0312 7.95312
Q39.5 8.98438 41.6562 10.9844
Q43.8906 13.1406 44.9844 15.7188
Q46.0938 18.3125 46.0938 22.2656
Q46.0938 26.1719 44.8438 28.7344
Q43.6094 31.2969 41.4062 32.7656
Q39.2031 34.2812 36.0781 34.8438
Q32.9531 35.4062 29.3438 35.4062
L24.9531 35.4062
L24.9531 43.5
L28.375 43.5
Q35.7969 43.5 40.2031 46.5938
Q44.625 49.7031 44.625 55.6719
Q44.625 58.2969 43.5 60.2656
Q42.3906 62.25 40.375 63.5312
Q38.2812 64.7969 35.8906 65.2812
Q33.5 65.7656 30.4688 65.7656
Q25.8281 65.7656 20.5938 64.1094
Q15.375 62.4531 10.75 59.4219
L10.25 59.4219
L10.25 69.625
Q13.7188 71.3438 19.5 72.7812
Q25.2969 74.2188 30.7188 74.2188
Q36.0312 74.2188 40.0781 73.2344
Q44.1406 72.2656 47.4062 70.125
Q50.9219 67.7812 52.7344 64.4531
Q54.5469 61.1406 54.5469 56.6875
Q54.5469 50.6406 50.2656 46.125
Q46 41.6094 40.1875 40.4375
L40.1875 39.75
Q42.5312 39.3594 45.5469 38.1094
Q48.5781 36.8594 50.6875 35.0156" id="Verdana-33"/>
      </defs>
      <g transform="translate(505.3449375 425.678125)scale(0.12 -0.12)">
       <use xlink:href="#Verdana-33"/>
       <use x="63.57421875" xlink:href="#Verdana-30"/>
       <use x="127.1484375" xlink:href="#Verdana-30"/>
      </g>
     </g>
    </g>
    <g id="xtick_10">
     <g id="line2d_20">
      <g>
       <use style="stroke:#000000;stroke-width:0.5;" x="576.0" xlink:href="#m93b0483c22" y="412.56"/>
      </g>
     </g>
     <g id="line2d_21">
      <g>
       <use style="stroke:#000000;stroke-width:0.5;" x="576.0" xlink:href="#m741efc42ff" y="12.528"/>
      </g>
     </g>
     <g id="text_10">
      <!-- 350 -->
      <g transform="translate(565.4409375 425.678125)scale(0.12 -0.12)">
       <use xlink:href="#Verdana-33"/>
       <use x="63.57421875" xlink:href="#Verdana-35"/>
       <use x="127.1484375" xlink:href="#Verdana-30"/>
      </g>
     </g>
    </g>
   </g>
   <g id="matplotlib.axis_2">
    <g id="ytick_1">
     <g id="line2d_22">
      <defs>
       <path d="
M0 0
L4 0" id="m728421d6d4" style="stroke:#000000;stroke-width:0.5;"/>
      </defs>
      <g>
       <use style="stroke:#000000;stroke-width:0.5;" x="35.136" xlink:href="#m728421d6d4" y="412.56"/>
      </g>
     </g>
     <g id="line2d_23">
      <defs>
       <path d="
M0 0
L-4 0" id="mcb0005524f" style="stroke:#000000;stroke-width:0.5;"/>
      </defs>
      <g>
       <use style="stroke:#000000;stroke-width:0.5;" x="576.0" xlink:href="#mcb0005524f" y="412.56"/>
      </g>
     </g>
     <g id="text_11">
      <!-- −100 -->
      <g transform="translate(0.507875 415.9115625)scale(0.12 -0.12)">
       <use xlink:href="#Verdana-2212"/>
       <use x="81.8359375" xlink:href="#Verdana-31"/>
       <use x="145.41015625" xlink:href="#Verdana-30"/>
       <use x="208.984375" xlink:href="#Verdana-30"/>
      </g>
     </g>
    </g>
    <g id="ytick_2">
     <g id="line2d_24">
      <g>
       <use style="stroke:#000000;stroke-width:0.5;" x="35.136" xlink:href="#m728421d6d4" y="355.412571429"/>
      </g>
     </g>
     <g id="line2d_25">
      <g>
       <use style="stroke:#000000;stroke-width:0.5;" x="576.0" xlink:href="#mcb0005524f" y="355.412571429"/>
      </g>
     </g>
     <g id="text_12">
      <!-- −50 -->
      <g transform="translate(8.13725 358.764133929)scale(0.12 -0.12)">
       <use xlink:href="#Verdana-2212"/>
       <use x="81.8359375" xlink:href="#Verdana-35"/>
       <use x="145.41015625" xlink:href="#Verdana-30"/>
      </g>
     </g>
    </g>
    <g id="ytick_3">
     <g id="line2d_26">
      <g>
       <use style="stroke:#000000;stroke-width:0.5;" x="35.136" xlink:href="#m728421d6d4" y="298.265142857"/>
      </g>
     </g>
     <g id="line2d_27">
      <g>
       <use style="stroke:#000000;stroke-width:0.5;" x="576.0" xlink:href="#mcb0005524f" y="298.265142857"/>
      </g>
     </g>
     <g id="text_13">
      <!-- 0 -->
      <g transform="translate(25.100375 301.616705357)scale(0.12 -0.12)">
       <use xlink:href="#Verdana-30"/>
      </g>
     </g>
    </g>
    <g id="ytick_4">
     <g id="line2d_28">
      <g>
       <use style="stroke:#000000;stroke-width:0.5;" x="35.136" xlink:href="#m728421d6d4" y="241.117714286"/>
      </g>
     </g>
     <g id="line2d_29">
      <g>
       <use style="stroke:#000000;stroke-width:0.5;" x="576.0" xlink:href="#mcb0005524f" y="241.117714286"/>
      </g>
     </g>
     <g id="text_14">
      <!-- 50 -->
      <g transform="translate(17.7635 244.469276786)scale(0.12 -0.12)">
       <use xlink:href="#Verdana-35"/>
       <use x="63.57421875" xlink:href="#Verdana-30"/>
      </g>
     </g>
    </g>
    <g id="ytick_5">
     <g id="line2d_30">
      <g>
       <use style="stroke:#000000;stroke-width:0.5;" x="35.136" xlink:href="#m728421d6d4" y="183.970285714"/>
      </g>
     </g>
     <g id="line2d_31">
      <g>
       <use style="stroke:#000000;stroke-width:0.5;" x="576.0" xlink:href="#mcb0005524f" y="183.970285714"/>
      </g>
     </g>
     <g id="text_15">
      <!-- 100 -->
      <g transform="translate(10.6685 187.321848214)scale(0.12 -0.12)">
       <use xlink:href="#Verdana-31"/>
       <use x="63.57421875" xlink:href="#Verdana-30"/>
       <use x="127.1484375" xlink:href="#Verdana-30"/>
      </g>
     </g>
    </g>
    <g id="ytick_6">
     <g id="line2d_32">
      <g>
       <use style="stroke:#000000;stroke-width:0.5;" x="35.136" xlink:href="#m728421d6d4" y="126.822857143"/>
      </g>
     </g>
     <g id="line2d_33">
      <g>
       <use style="stroke:#000000;stroke-width:0.5;" x="576.0" xlink:href="#mcb0005524f" y="126.822857143"/>
      </g>
     </g>
     <g id="text_16">
      <!-- 150 -->
      <g transform="translate(10.6685 130.174419643)scale(0.12 -0.12)">
       <use xlink:href="#Verdana-31"/>
       <use x="63.57421875" xlink:href="#Verdana-35"/>
       <use x="127.1484375" xlink:href="#Verdana-30"/>
      </g>
     </g>
    </g>
    <g id="ytick_7">
     <g id="line2d_34">
      <g>
       <use style="stroke:#000000;stroke-width:0.5;" x="35.136" xlink:href="#m728421d6d4" y="69.6754285714"/>
      </g>
     </g>
     <g id="line2d_35">
      <g>
       <use style="stroke:#000000;stroke-width:0.5;" x="576.0" xlink:href="#mcb0005524f" y="69.6754285714"/>
      </g>
     </g>
     <g id="text_17">
      <!-- 200 -->
      <g transform="translate(9.98225 73.0269910714)scale(0.12 -0.12)">
       <use xlink:href="#Verdana-32"/>
       <use x="63.57421875" xlink:href="#Verdana-30"/>
       <use x="127.1484375" xlink:href="#Verdana-30"/>
      </g>
     </g>
    </g>
    <g id="ytick_8">
     <g id="line2d_36">
      <g>
       <use style="stroke:#000000;stroke-width:0.5;" x="35.136" xlink:href="#m728421d6d4" y="12.528"/>
      </g>
     </g>
     <g id="line2d_37">
      <g>
       <use style="stroke:#000000;stroke-width:0.5;" x="576.0" xlink:href="#mcb0005524f" y="12.528"/>
      </g>
     </g>
     <g id="text_18">
      <!-- 250 -->
      <g transform="translate(9.98225 15.8795625)scale(0.12 -0.12)">
       <use xlink:href="#Verdana-32"/>
       <use x="63.57421875" xlink:href="#Verdana-35"/>
       <use x="127.1484375" xlink:href="#Verdana-30"/>
      </g>
     </g>
    </g>
   </g>
   <g id="patch_3">
    <path d="
M35.136 12.528
L576 12.528" style="fill:none;stroke:#000000;"/>
   </g>
   <g id="patch_4">
    <path d="
M576 412.56
L576 12.528" style="fill:none;stroke:#000000;"/>
   </g>
   <g id="patch_5">
    <path d="
M35.136 412.56
L576 412.56" style="fill:none;stroke:#000000;"/>
   </g>
   <g id="patch_6">
    <path d="
M35.136 412.56
L35.136 12.528" style="fill:none;stroke:#000000;"/>
   </g>
  </g>
 </g>
 <defs>
  <clipPath id="p0d9bf35fa7">
   <rect height="400.032" width="540.864" x="35.136" y="12.528"/>
  </clipPath>
 </defs>
</svg>
