<?xml version="1.0" encoding="utf-8" standalone="no"?>
<!DOCTYPE svg PUBLIC "-//W3C//DTD SVG 1.1//EN"
  "http://www.w3.org/Graphics/SVG/1.1/DTD/svg11.dtd">
<!-- Created with matplotlib (http://matplotlib.org/) -->
<svg height="432pt" version="1.1" viewBox="0 0 576 432" width="576pt" xmlns="http://www.w3.org/2000/svg" xmlns:xlink="http://www.w3.org/1999/xlink">
 <defs>
  <style type="text/css">
*{stroke-linecap:butt;stroke-linejoin:round;}
  </style>
 </defs>
 <g id="figure_1">
  <g id="patch_1">
   <path d="
M0 432
L576 432
L576 0
L0 0
z
" style="fill:#ffffff;"/>
  </g>
  <g id="axes_1">
   <g id="patch_2">
    <path d="
M35.136 406.944
L576 406.944
L576 17.712
L35.136 17.712
z
" style="fill:#ffffff;"/>
   </g>
   <g id="line2d_1">
    <path clip-path="url(#p8c61e37774)" d="
M160.935 293.404
L163.538 291.962
L164.63 291.282
L166.822 290.04
L177.7 284.737
L178.069 284.494
L178.957 284.125
L180.391 283.338
L182.412 282.28
L185.123 280.909
L188.588 279.064
L191.801 277.579
L193.039 276.892
L194.148 276.398
L194.921 275.886
L197.573 274.314
L201.248 272.439
L205.483 270.414
L207.256 269.494
L207.976 269.126
L211.005 267.469
L222.576 261.172
L223.074 260.986
L224.341 260.275
L229.009 257.958
L232.532 255.946
L235.688 253.756
L237.869 252.112
L240.096 250.525
L240.799 249.933
L242.152 249.255
L248.193 245.568
L251.443 243.177
L253.768 240.876
L254.973 239.514
L258.12 234.932
L258.379 234.506
L261.219 230.019
L262.167 228.155
L263.068 226.118
L263.69 224.329
L264.174 222.923
L264.583 218.325
L264.307 214.496
L263.811 212.99
L262.706 210.887
L255.165 198.716
L254.364 197.98
L253.731 197.685
L252.822 197.425
L251.733 197.488
L250.573 198.002
L249.252 198.653
L241.901 202.963
L239.439 204.312
L237.581 205.33
L232.112 208.797
L231.486 209.634
L231.282 209.961
L230.712 212.117
L230.416 214.124
L230.073 219.317
L230.177 221.712
L230.497 223.386
L231.377 225.697
L231.709 226.379
L232.274 227.52
L233.39 229.547
L236.491 235.054
L238.519 237.706
L239.292 238.16
L239.673 238.218
L240.167 238.366
L240.694 238.391
L240.818 238.308
L241.464 238.292
L242.865 237.947
L247.538 236.285
L248.612 236.127
L252.481 237.969
L253.26 238.866
L254.006 240.341
L254.295 240.483
L254.175 240.662
L254.411 240.855
L254.301 241.121
L254.339 241.349
L254.163 241.43
L253.917 241.714
L253.485 242.034
L252.855 242.256
L252.561 242.486
L251.82 242.987
L250.358 243.772
L248.601 244.535
L247.312 245.023
L241.531 247.478
L239.16 248.321
L237.736 248.314
L231.455 239.642
L228.709 235.278
L227.281 233.508
L226.575 232.8
L225.379 232.035
L223.672 231.328
L220.625 230.173
L219.611 229.613
L217.657 228.023
L215.756 226.004
L214.012 223.616
L210.507 217.785
L207.573 213.362
L206.516 212.439
L205.773 212.021
L204.606 211.557
L203.71 211.592
L202.832 211.487
L201.484 211.604
L201.024 211.661
L200.79 211.967
L199.454 212.438
L194.599 214.775
L190.954 216.824
L187.443 218.834
L185.084 220.049
L182.971 221.159
L180.781 222.281
L173.127 226.453
L171.072 227.514
L170.148 228.088
L168.618 228.764
L167.614 229.274
L166.895 229.729
L165.854 230.189
L164.951 230.711
L164.466 230.875
L162.889 231.736
L155.445 235.421
L154.628 235.691
L154.436 235.937
L153.19 236.382
L152.894 236.604
L151.619 237.054
L149.945 237.876
L149.313 238.093
L135.998 244.812
L135.568 244.885
L131.83 246.866
L116.189 254.88
L114.873 255.564
L111.942 257.152
L110.709 257.811
L109.182 258.59
L106.304 259.904
L104.627 260.744
L101.678 262.179
L99.3055 263.415
L94.6518 265.597
L93.1318 266.263
L90.5085 265.527
L89.176 265.148
L87.5775 264.865
L78.9021 263.869
L74.9127 263.285
L72.8672 263.194
L69.086 263.195
L67.3023 263.563
L63.5166 264.913
L62.1337 265.501
L59.6971 266.351
L58.2217 266.58
L56.5066 266.557
L55.0668 266.221
L54.0945 265.757
L52.4955 264.569
L50.6663 262.414
L47.4247 257.587
L47.294 256.658
L47.3466 255.92
L49.037 254.061
L51.4943 252.613
L53.6935 251.663
L54.4257 251.364
L57.9873 249.455
L59.1515 248.757
L66.321 244.406
L67.0111 243.476
L67.2831 242.778
L67.2353 241.924
L67.1762 240.822
L67.1002 240.586
L67.0908 240.165
L66.4429 238.704
L65.3875 236.707
L65.1382 236.377
L64.5335 235.284
L60.4583 229.098
L57.9288 225.092
L57.2059 223.621
L56.951 222.153
L57.0196 220.438
L57.4904 218.309
L58.5073 215.683
L60.0914 213.898
L60.6645 213.468
L63.5832 211.558
L65.0187 210.769
L66.634 209.921
L71.9227 207.308
L75.6613 205.128
L79.908 202.891
L81.8189 201.856
L86.6429 199.487
L88.1276 198.907
L89.7985 198.557
L90.5097 198.443
L91.178 198.629
L91.6948 198.281
L92.6939 198.053
L93.7211 197.701
L112.262 187.977
L115.744 185.876
L118.463 184.177
L119.963 182.788
L120.486 182.121
L121.792 180.348
L125.152 177.867
L126.102 177.289
L127.747 176.639
L128.413 176.32
L130.484 175.242
L133.893 173.335
L137.014 171.561
L138.996 169.134
L140.814 167.589
L141.912 166.97
L143.304 166.183
L148.663 163.597
L150.75 162.755
L152.358 162.021
L153.945 161.203
L155.052 160.635
L160.374 157.871
L161.301 157.411
L179.156 147.956
L180.713 147.092
L183 145.913
L184.983 144.922
L190.885 141.901
L191.123 141.89
L194.971 140.973
L196.141 140.396
L198.23 139.043
L199.626 138.079
L200.738 137.521
L205.243 136.256
L206.138 136.078
L210.387 135.552
L211.271 135.258
L212.892 134.867
L214.791 133.865
L216.179 133.193
L217.801 132.342
L230.042 126.039
L231.687 125.085
L233.068 124.439
L234.49 123.645
L235.115 123.167
L237.811 121.797
L238.338 121.603
L243.8 118.705
L247.896 116.604
L251.723 114.457
L253.89 113.337
L257.943 111.037
L258.685 110.745
L265.155 107.263
L269.751 104.92
L271.344 104.146
L294.292 92.6892
L301.043 89.043
L310.067 84.8113
L311.646 83.8941
L316.083 81.4599
L316.921 80.8299
L319.253 80.345
L320.851 79.5822
L325.015 77.133
L328.651 75.2908
L329.806 74.7635
L332.438 73.3348
L334.771 72.0776
L336.404 71.5423
L337.314 71.5336
L338.491 71.9389
L340.048 73.1059
L341.201 74.0686
L341.642 74.2539
L342.056 74.2397
L342.709 74.4164
L345.124 74.5784
L348.188 74.6082
L349.612 75.1751
L350.795 75.9654
L351.791 77.0376
L352.005 77.6648
L352.04 78.1827
L351.683 78.5196
L350.95 80.184
L350.096 81.5094
L346.587 85.4744
L345.643 86.9672
L345.438 87.7014
L345.014 88.6536
L344.783 89.4946
L343.068 94.8866
L341.784 98.5445
L341.613 99.1428
L340.59 101.586
L340.728 103.379
L340.92 104.31
L341.478 105.879
L342.469 108.245
L343.404 110.041
L344.691 112.435
L347.925 117.732
L348.822 118.845
L349.39 119.553
L349.725 120.087
L349.947 121.318
L349.962 121.772
L348.406 124.204
L348.178 125.529
L348.358 126.551
L348.725 127.654
L349.3 128.853
L350.444 130.187
L351.472 130.973
L352.446 131.544
L353.369 131.979
L355.663 132.749
L357.02 133.043
L359.772 133.123
L363.906 132.816
L366.357 132.668
L372.26 132.54
L376.761 131.709
L379.315 130.784
L386.117 127.898
L391.709 125.648
L394.429 124.285
L395.704 123.518
L396.811 122.721
L400.509 119.658
L405.6 115.895
L410.764 111.15
L412.794 108.977
L414.481 106.791
L418.874 100.622
L422.463 96.5341
L424.643 94.6327
L429.652 91.5878
L432.283 90.1372
L436.186 88.3474
L442.292 85.6333
L447.708 83.348
L451.402 81.4378
L452.257 80.8304
L452.913 80.1221
L453.425 79.1979
L454.421 76.6792
L454.997 74.3839
L455.081 73.2117
L454.903 71.7973
L454.461 70.7197
L452.937 67.7161
L450.086 63.2357
L448.737 61.1625
L446.276 56.7597
L445.636 55.4392
L445.247 54.7856
L444.53 53.2882
L443.764 52.5792
L443.337 52.318
L441.489 51.635
L438.613 51.4608
L436.932 51.6765
L435.562 52.162
L434.452 52.3929
L431.706 53.1787
L427.705 53.9453
L425.666 54.1806
L423.288 54.1386
L422.281 53.8727
L421.419 53.5486
L420.43 52.9009
L419.221 51.8181
L416.467 47.8686
L415.554 46.3211
L415.209 45.4691
L415.023 44.391
L414.97 42.7042
L415.512 41.6647
L416.067 40.8959
L417.645 39.6634
L419.15 38.7569
L420.778 37.8917
L426.523 35.147
L427.988 34.56
L429.979 34.1373
L431.49 34.5423
L433.194 35.5624
L433.873 36.1307
L434.792 37.0229
L436.426 38.9656
L437.93 41.073
L438.739 42.2158
L439.861 43.9226
L441.384 46.4052
L443.086 49.2628
L445.525 53.1746
L448.375 57.6293
L452.47 64.1075
L454.325 66.4993
L456.534 68.4688
L458.278 69.6105
L459.004 70.0236
L459.47 70.451
L460.073 70.6242
L462.702 72.1051
L464.227 73.3447
L464.816 73.8111
L466.318 75.5135
L468.564 78.9089
L474.557 88.8773
L478.957 96.4355
L481.079 99.4972
L484.881 105.528
L486.011 107.419
L488.279 111.86
L488.869 112.544
L489.308 113.347
L492.05 117.477
L493.491 119.855
L497.405 127.032
L500.367 132
L501.45 133.958
L502.855 136.807
L503.439 137.879
L503.795 138.471
L503.996 139.155
L504.931 139.851
L509.584 147.963
L509.836 148.484
L514.805 154.804
L515.819 156.488
L516.464 157.546
L517.225 158.893
L517.962 160.091
L521.021 166.056
L521.252 166.379
L521.69 167.322
L522.836 169.035
L523.054 169.418
L523.906 170.51
L526.74 173.734
L527.104 173.995
L528.774 176.391
L530.073 178.42
L532.965 182.746
L534.777 185.532
L539.849 194.337
L540.257 196.079
L540.288 196.544
L540.472 197.141
L540.441 197.643
L540.863 199.619
L542.441 202.906
L543.138 204.063
L544.25 205.847
L545.926 208.467
L548.156 212.473
L548.775 213.813
L552.47 218.337
L553.108 219.343
L554.651 222.682
L554.902 223.915
L555.166 224.595
L555.243 225.303
L554.801 227.828
L554.397 228.867
L552.872 230.678
L550.809 232.445
L549.006 233.608
L546.528 234.955
L540.941 238.15
L535.906 240.767
L534.896 241.258
L530.558 243.603
L521.544 247.847
L519.495 248.937
L518.406 249.667
L518.161 250.029
L516.085 251.429
L515.311 251.791
L511.689 253.609
L510.571 254.238
L508.552 255.393
L507.281 256.166
L506.049 256.842
L500.495 260.317
L495.529 263.297
L490.906 265.58
L489.478 266.445
L488.373 267.007
L486.58 268.016
L485.66 268.444
L484.84 269.166
L479.314 272.516
L478.292 272.871
L477.647 273.433
L474.776 274.815
L469.738 277.232
L465.684 279.573
L459.44 282.977
L458.983 283.165
L458.48 283.565
L457.17 284.312
L456.778 284.661
L456.017 284.976
L451.068 287.703
L447.528 289.84
L445.028 291.53
L440.814 293.738
L440.522 293.997
L439.936 294.343
L436.408 296.454
L433.678 297.499
L429.606 298.973
L428.412 299.528
L427.466 299.935
L425.011 300.954
L424.457 301.083
L423.301 301.598
L421.819 301.972
L420.28 302.664
L415.968 304.835
L413.875 306.024
L405.102 311.004
L404.756 311.151
L404.088 311.576
L402.727 312.356
L401.55 313.091
L397.704 315.108
L396.857 315.587
L358.037 337.338
L355.903 338.492
L353.45 339.993
L352.014 341.255
L351.046 342.557
L350.741 342.907
L347.587 345.186
L345.86 346.188
L341.507 348.929
L339.892 349.81
L336.01 352.043
L334.658 352.706
L333.898 353.092
L332.696 353.615
L331.594 354.1
L330.756 354.627
L330.367 354.764
L330.063 355.014
L328.419 355.962
L326.673 356.9
L319.457 360.784
L317.713 361.769
L316.879 362.213
L314.758 363.434
L314.186 363.735
L313.292 364.28
L311.248 365.483
L310.164 366.09
L308.824 366.834
L308 367.288
L306.168 368.699
L306.173 368.719
L305.534 369.435
L304.229 371.05
L303.078 372.135
L302.02 373.003
L301.515 373.33
L300.345 373.823
L298.843 374.593
L293.384 377.402
L292.273 378.175
L291.746 378.419
L290.286 379.349
L289.289 379.849
L288.575 380.298
L287.773 380.789
L286.319 381.718
L284.758 382.649
L284.081 383.112
L283.409 383.491
L283.024 383.651
L282.703 383.945
L281.889 384.38
L281.065 385.431
L280.301 385.811
L279.245 386.611
L277.954 387.006
L277.501 386.859
L277.063 386.885
L275.816 386.74
L275.083 386.719
L274.519 386.064
L274.36 386.267
L273.567 385.893
L273.095 385.67
L271.911 384.796
L270.063 382.38
L266.049 376.011
L265.573 375.158
L265.573 375.158" style="fill:none;stroke:#0000ff;stroke-linecap:square;"/>
   </g>
   <g id="matplotlib.axis_1">
    <g id="xtick_1">
     <g id="line2d_2">
      <defs>
       <path d="
M0 0
L0 -4" id="m93b0483c22" style="stroke:#000000;stroke-width:0.5;"/>
      </defs>
      <g>
       <use style="stroke:#000000;stroke-width:0.5;" x="35.136" xlink:href="#m93b0483c22" y="406.944"/>
      </g>
     </g>
     <g id="line2d_3">
      <defs>
       <path d="
M0 0
L0 4" id="m741efc42ff" style="stroke:#000000;stroke-width:0.5;"/>
      </defs>
      <g>
       <use style="stroke:#000000;stroke-width:0.5;" x="35.136" xlink:href="#m741efc42ff" y="17.712"/>
      </g>
     </g>
     <g id="text_1">
      <!-- −100 -->
      <defs>
       <path d="
M52.9375 0
L13.5781 0
L13.5781 7.42188
L28.7188 7.42188
L28.7188 56.1562
L13.5781 56.1562
L13.5781 62.7969
Q16.6562 62.7969 20.1719 63.2969
Q23.6875 63.8125 25.4844 64.7969
Q27.7344 66.0156 29.0312 67.8906
Q30.3281 69.7812 30.5156 72.9531
L38.0938 72.9531
L38.0938 7.42188
L52.9375 7.42188
z
" id="Verdana-31"/>
       <path d="
M56.9844 36.375
Q56.9844 16.7969 50.8594 7.64062
Q44.7344 -1.51562 31.8438 -1.51562
Q18.75 -1.51562 12.7188 7.76562
Q6.6875 17.0469 6.6875 36.2812
Q6.6875 55.6719 12.7812 64.9219
Q18.8906 74.1719 31.8438 74.1719
Q44.9219 74.1719 50.9531 64.7656
Q56.9844 55.375 56.9844 36.375
M44.1406 14.2031
Q45.8438 18.1719 46.4531 23.5156
Q47.0781 28.8594 47.0781 36.375
Q47.0781 43.7969 46.4531 49.2656
Q45.8438 54.7344 44.0938 58.5469
Q42.3906 62.3125 39.4219 64.2031
Q36.4688 66.1094 31.8438 66.1094
Q27.25 66.1094 24.2344 64.2031
Q21.2344 62.3125 19.4844 58.4531
Q17.8281 54.8281 17.2188 49.0156
Q16.6094 43.2188 16.6094 36.2812
Q16.6094 28.6562 17.1406 23.5312
Q17.6719 18.4062 19.4375 14.3594
Q21.0469 10.5469 24 8.54688
Q26.9531 6.54688 31.8438 6.54688
Q36.4219 6.54688 39.4531 8.45312
Q42.4844 10.3594 44.1406 14.2031" id="Verdana-30"/>
       <path d="
M71.0938 27.9375
L10.75 27.9375
L10.75 35.75
L71.0938 35.75
z
" id="Verdana-2212"/>
      </defs>
      <g transform="translate(19.8219375 420.062125)scale(0.12 -0.12)">
       <use xlink:href="#Verdana-2212"/>
       <use x="81.8359375" xlink:href="#Verdana-31"/>
       <use x="145.41015625" xlink:href="#Verdana-30"/>
       <use x="208.984375" xlink:href="#Verdana-30"/>
      </g>
     </g>
    </g>
    <g id="xtick_2">
     <g id="line2d_4">
      <g>
       <use style="stroke:#000000;stroke-width:0.5;" x="95.232" xlink:href="#m93b0483c22" y="406.944"/>
      </g>
     </g>
     <g id="line2d_5">
      <g>
       <use style="stroke:#000000;stroke-width:0.5;" x="95.232" xlink:href="#m741efc42ff" y="17.712"/>
      </g>
     </g>
     <g id="text_2">
      <!-- −50 -->
      <defs>
       <path d="
M56.5 23.0938
Q56.5 18.0156 54.6406 13.375
Q52.7812 8.73438 49.5625 5.5625
Q46.0469 2.15625 41.1875 0.3125
Q36.3281 -1.51562 29.9375 -1.51562
Q23.9688 -1.51562 18.4531 -0.265625
Q12.9375 0.984375 9.125 2.73438
L9.125 13.0312
L9.8125 13.0312
Q13.8125 10.5 19.1875 8.71875
Q24.5625 6.9375 29.7344 6.9375
Q33.2031 6.9375 36.4531 7.90625
Q39.7031 8.89062 42.2344 11.3281
Q44.3906 13.4219 45.4844 16.3438
Q46.5781 19.2812 46.5781 23.1406
Q46.5781 26.9062 45.2812 29.4844
Q44 32.0781 41.7031 33.6406
Q39.1562 35.5 35.5156 36.25
Q31.8906 37.0156 27.3906 37.0156
Q23.0938 37.0156 19.1094 36.4219
Q15.1406 35.8438 12.25 35.25
L12.25 72.7031
L56 72.7031
L56 64.1562
L21.6875 64.1562
L21.6875 44.8281
Q23.7812 45.0156 25.9688 45.1094
Q28.1719 45.2188 29.7812 45.2188
Q35.6875 45.2188 40.125 44.2188
Q44.5781 43.2188 48.2969 40.6719
Q52.2031 37.9844 54.3438 33.7344
Q56.5 29.5 56.5 23.0938" id="Verdana-35"/>
      </defs>
      <g transform="translate(83.732625 420.062125)scale(0.12 -0.12)">
       <use xlink:href="#Verdana-2212"/>
       <use x="81.8359375" xlink:href="#Verdana-35"/>
       <use x="145.41015625" xlink:href="#Verdana-30"/>
      </g>
     </g>
    </g>
    <g id="xtick_3">
     <g id="line2d_6">
      <g>
       <use style="stroke:#000000;stroke-width:0.5;" x="155.328" xlink:href="#m93b0483c22" y="406.944"/>
      </g>
     </g>
     <g id="line2d_7">
      <g>
       <use style="stroke:#000000;stroke-width:0.5;" x="155.328" xlink:href="#m741efc42ff" y="17.712"/>
      </g>
     </g>
     <g id="text_3">
      <!-- 0 -->
      <g transform="translate(152.3101875 420.062125)scale(0.12 -0.12)">
       <use xlink:href="#Verdana-30"/>
      </g>
     </g>
    </g>
    <g id="xtick_4">
     <g id="line2d_8">
      <g>
       <use style="stroke:#000000;stroke-width:0.5;" x="215.424" xlink:href="#m93b0483c22" y="406.944"/>
      </g>
     </g>
     <g id="line2d_9">
      <g>
       <use style="stroke:#000000;stroke-width:0.5;" x="215.424" xlink:href="#m741efc42ff" y="17.712"/>
      </g>
     </g>
     <g id="text_4">
      <!-- 50 -->
      <g transform="translate(208.73775 420.062125)scale(0.12 -0.12)">
       <use xlink:href="#Verdana-35"/>
       <use x="63.57421875" xlink:href="#Verdana-30"/>
      </g>
     </g>
    </g>
    <g id="xtick_5">
     <g id="line2d_10">
      <g>
       <use style="stroke:#000000;stroke-width:0.5;" x="275.52" xlink:href="#m93b0483c22" y="406.944"/>
      </g>
     </g>
     <g id="line2d_11">
      <g>
       <use style="stroke:#000000;stroke-width:0.5;" x="275.52" xlink:href="#m741efc42ff" y="17.712"/>
      </g>
     </g>
     <g id="text_5">
      <!-- 100 -->
      <g transform="translate(265.28625 420.062125)scale(0.12 -0.12)">
       <use xlink:href="#Verdana-31"/>
       <use x="63.57421875" xlink:href="#Verdana-30"/>
       <use x="127.1484375" xlink:href="#Verdana-30"/>
      </g>
     </g>
    </g>
    <g id="xtick_6">
     <g id="line2d_12">
      <g>
       <use style="stroke:#000000;stroke-width:0.5;" x="335.616" xlink:href="#m93b0483c22" y="406.944"/>
      </g>
     </g>
     <g id="line2d_13">
      <g>
       <use style="stroke:#000000;stroke-width:0.5;" x="335.616" xlink:href="#m741efc42ff" y="17.712"/>
      </g>
     </g>
     <g id="text_6">
      <!-- 150 -->
      <g transform="translate(325.38225 420.062125)scale(0.12 -0.12)">
       <use xlink:href="#Verdana-31"/>
       <use x="63.57421875" xlink:href="#Verdana-35"/>
       <use x="127.1484375" xlink:href="#Verdana-30"/>
      </g>
     </g>
    </g>
    <g id="xtick_7">
     <g id="line2d_14">
      <g>
       <use style="stroke:#000000;stroke-width:0.5;" x="395.712" xlink:href="#m93b0483c22" y="406.944"/>
      </g>
     </g>
     <g id="line2d_15">
      <g>
       <use style="stroke:#000000;stroke-width:0.5;" x="395.712" xlink:href="#m741efc42ff" y="17.712"/>
      </g>
     </g>
     <g id="text_7">
      <!-- 200 -->
      <defs>
       <path d="
M57.0781 0
L7.85938 0
L7.85938 10.2031
Q12.9844 14.5938 18.1406 18.9844
Q23.2969 23.3906 27.7344 27.7344
Q37.1094 36.8125 40.5781 42.1562
Q44.0469 47.5156 44.0469 53.7188
Q44.0469 59.375 40.3125 62.5625
Q36.5781 65.7656 29.8906 65.7656
Q25.4375 65.7656 20.2656 64.2031
Q15.0938 62.6406 10.1562 59.4219
L9.67188 59.4219
L9.67188 69.6719
Q13.1406 71.3906 18.9219 72.7969
Q24.7031 74.2188 30.125 74.2188
Q41.3125 74.2188 47.6562 68.8125
Q54 63.4219 54 54.2031
Q54 50.0469 52.9531 46.4531
Q51.9062 42.875 49.8594 39.6562
Q47.9531 36.625 45.3906 33.6875
Q42.8281 30.7656 39.1562 27.2031
Q33.9375 22.0781 28.3594 17.2656
Q22.7969 12.4531 17.9688 8.34375
L57.0781 8.34375
z
" id="Verdana-32"/>
      </defs>
      <g transform="translate(385.135125 420.062125)scale(0.12 -0.12)">
       <use xlink:href="#Verdana-32"/>
       <use x="63.57421875" xlink:href="#Verdana-30"/>
       <use x="127.1484375" xlink:href="#Verdana-30"/>
      </g>
     </g>
    </g>
    <g id="xtick_8">
     <g id="line2d_16">
      <g>
       <use style="stroke:#000000;stroke-width:0.5;" x="455.808" xlink:href="#m93b0483c22" y="406.944"/>
      </g>
     </g>
     <g id="line2d_17">
      <g>
       <use style="stroke:#000000;stroke-width:0.5;" x="455.808" xlink:href="#m741efc42ff" y="17.712"/>
      </g>
     </g>
     <g id="text_8">
      <!-- 250 -->
      <g transform="translate(445.231125 420.062125)scale(0.12 -0.12)">
       <use xlink:href="#Verdana-32"/>
       <use x="63.57421875" xlink:href="#Verdana-35"/>
       <use x="127.1484375" xlink:href="#Verdana-30"/>
      </g>
     </g>
    </g>
    <g id="xtick_9">
     <g id="line2d_18">
      <g>
       <use style="stroke:#000000;stroke-width:0.5;" x="515.904" xlink:href="#m93b0483c22" y="406.944"/>
      </g>
     </g>
     <g id="line2d_19">
      <g>
       <use style="stroke:#000000;stroke-width:0.5;" x="515.904" xlink:href="#m741efc42ff" y="17.712"/>
      </g>
     </g>
     <g id="text_9">
      <!-- 300 -->
      <defs>
       <path d="
M50.6875 35.0156
Q53.0312 32.9062 54.5469 29.7344
Q56.0625 26.5625 56.0625 21.5312
Q56.0625 16.5469 54.25 12.3906
Q52.4375 8.25 49.1719 5.17188
Q45.5156 1.76562 40.5469 0.125
Q35.5938 -1.51562 29.6875 -1.51562
Q23.6406 -1.51562 17.7812 -0.0625
Q11.9219 1.375 8.15625 3.07812
L8.15625 13.2812
L8.89062 13.2812
Q13.0312 10.5469 18.6406 8.73438
Q24.2656 6.9375 29.5 6.9375
Q32.5625 6.9375 36.0312 7.95312
Q39.5 8.98438 41.6562 10.9844
Q43.8906 13.1406 44.9844 15.7188
Q46.0938 18.3125 46.0938 22.2656
Q46.0938 26.1719 44.8438 28.7344
Q43.6094 31.2969 41.4062 32.7656
Q39.2031 34.2812 36.0781 34.8438
Q32.9531 35.4062 29.3438 35.4062
L24.9531 35.4062
L24.9531 43.5
L28.375 43.5
Q35.7969 43.5 40.2031 46.5938
Q44.625 49.7031 44.625 55.6719
Q44.625 58.2969 43.5 60.2656
Q42.3906 62.25 40.375 63.5312
Q38.2812 64.7969 35.8906 65.2812
Q33.5 65.7656 30.4688 65.7656
Q25.8281 65.7656 20.5938 64.1094
Q15.375 62.4531 10.75 59.4219
L10.25 59.4219
L10.25 69.625
Q13.7188 71.3438 19.5 72.7812
Q25.2969 74.2188 30.7188 74.2188
Q36.0312 74.2188 40.0781 73.2344
Q44.1406 72.2656 47.4062 70.125
Q50.9219 67.7812 52.7344 64.4531
Q54.5469 61.1406 54.5469 56.6875
Q54.5469 50.6406 50.2656 46.125
Q46 41.6094 40.1875 40.4375
L40.1875 39.75
Q42.5312 39.3594 45.5469 38.1094
Q48.5781 36.8594 50.6875 35.0156" id="Verdana-33"/>
      </defs>
      <g transform="translate(505.3449375 420.062125)scale(0.12 -0.12)">
       <use xlink:href="#Verdana-33"/>
       <use x="63.57421875" xlink:href="#Verdana-30"/>
       <use x="127.1484375" xlink:href="#Verdana-30"/>
      </g>
     </g>
    </g>
    <g id="xtick_10">
     <g id="line2d_20">
      <g>
       <use style="stroke:#000000;stroke-width:0.5;" x="576.0" xlink:href="#m93b0483c22" y="406.944"/>
      </g>
     </g>
     <g id="line2d_21">
      <g>
       <use style="stroke:#000000;stroke-width:0.5;" x="576.0" xlink:href="#m741efc42ff" y="17.712"/>
      </g>
     </g>
     <g id="text_10">
      <!-- 350 -->
      <g transform="translate(565.4409375 420.062125)scale(0.12 -0.12)">
       <use xlink:href="#Verdana-33"/>
       <use x="63.57421875" xlink:href="#Verdana-35"/>
       <use x="127.1484375" xlink:href="#Verdana-30"/>
      </g>
     </g>
    </g>
   </g>
   <g id="matplotlib.axis_2">
    <g id="ytick_1">
     <g id="line2d_22">
      <defs>
       <path d="
M0 0
L4 0" id="m728421d6d4" style="stroke:#000000;stroke-width:0.5;"/>
      </defs>
      <g>
       <use style="stroke:#000000;stroke-width:0.5;" x="35.136" xlink:href="#m728421d6d4" y="406.944"/>
      </g>
     </g>
     <g id="line2d_23">
      <defs>
       <path d="
M0 0
L-4 0" id="mcb0005524f" style="stroke:#000000;stroke-width:0.5;"/>
      </defs>
      <g>
       <use style="stroke:#000000;stroke-width:0.5;" x="576.0" xlink:href="#mcb0005524f" y="406.944"/>
      </g>
     </g>
     <g id="text_11">
      <!-- −100 -->
      <g transform="translate(0.507875 410.2955625)scale(0.12 -0.12)">
       <use xlink:href="#Verdana-2212"/>
       <use x="81.8359375" xlink:href="#Verdana-31"/>
       <use x="145.41015625" xlink:href="#Verdana-30"/>
       <use x="208.984375" xlink:href="#Verdana-30"/>
      </g>
     </g>
    </g>
    <g id="ytick_2">
     <g id="line2d_24">
      <g>
       <use style="stroke:#000000;stroke-width:0.5;" x="35.136" xlink:href="#m728421d6d4" y="351.339428571"/>
      </g>
     </g>
     <g id="line2d_25">
      <g>
       <use style="stroke:#000000;stroke-width:0.5;" x="576.0" xlink:href="#mcb0005524f" y="351.339428571"/>
      </g>
     </g>
     <g id="text_12">
      <!-- −50 -->
      <g transform="translate(8.13725 354.690991071)scale(0.12 -0.12)">
       <use xlink:href="#Verdana-2212"/>
       <use x="81.8359375" xlink:href="#Verdana-35"/>
       <use x="145.41015625" xlink:href="#Verdana-30"/>
      </g>
     </g>
    </g>
    <g id="ytick_3">
     <g id="line2d_26">
      <g>
       <use style="stroke:#000000;stroke-width:0.5;" x="35.136" xlink:href="#m728421d6d4" y="295.734857143"/>
      </g>
     </g>
     <g id="line2d_27">
      <g>
       <use style="stroke:#000000;stroke-width:0.5;" x="576.0" xlink:href="#mcb0005524f" y="295.734857143"/>
      </g>
     </g>
     <g id="text_13">
      <!-- 0 -->
      <g transform="translate(25.100375 299.086419643)scale(0.12 -0.12)">
       <use xlink:href="#Verdana-30"/>
      </g>
     </g>
    </g>
    <g id="ytick_4">
     <g id="line2d_28">
      <g>
       <use style="stroke:#000000;stroke-width:0.5;" x="35.136" xlink:href="#m728421d6d4" y="240.130285714"/>
      </g>
     </g>
     <g id="line2d_29">
      <g>
       <use style="stroke:#000000;stroke-width:0.5;" x="576.0" xlink:href="#mcb0005524f" y="240.130285714"/>
      </g>
     </g>
     <g id="text_14">
      <!-- 50 -->
      <g transform="translate(17.7635 243.481848214)scale(0.12 -0.12)">
       <use xlink:href="#Verdana-35"/>
       <use x="63.57421875" xlink:href="#Verdana-30"/>
      </g>
     </g>
    </g>
    <g id="ytick_5">
     <g id="line2d_30">
      <g>
       <use style="stroke:#000000;stroke-width:0.5;" x="35.136" xlink:href="#m728421d6d4" y="184.525714286"/>
      </g>
     </g>
     <g id="line2d_31">
      <g>
       <use style="stroke:#000000;stroke-width:0.5;" x="576.0" xlink:href="#mcb0005524f" y="184.525714286"/>
      </g>
     </g>
     <g id="text_15">
      <!-- 100 -->
      <g transform="translate(10.6685 187.877276786)scale(0.12 -0.12)">
       <use xlink:href="#Verdana-31"/>
       <use x="63.57421875" xlink:href="#Verdana-30"/>
       <use x="127.1484375" xlink:href="#Verdana-30"/>
      </g>
     </g>
    </g>
    <g id="ytick_6">
     <g id="line2d_32">
      <g>
       <use style="stroke:#000000;stroke-width:0.5;" x="35.136" xlink:href="#m728421d6d4" y="128.921142857"/>
      </g>
     </g>
     <g id="line2d_33">
      <g>
       <use style="stroke:#000000;stroke-width:0.5;" x="576.0" xlink:href="#mcb0005524f" y="128.921142857"/>
      </g>
     </g>
     <g id="text_16">
      <!-- 150 -->
      <g transform="translate(10.6685 132.272705357)scale(0.12 -0.12)">
       <use xlink:href="#Verdana-31"/>
       <use x="63.57421875" xlink:href="#Verdana-35"/>
       <use x="127.1484375" xlink:href="#Verdana-30"/>
      </g>
     </g>
    </g>
    <g id="ytick_7">
     <g id="line2d_34">
      <g>
       <use style="stroke:#000000;stroke-width:0.5;" x="35.136" xlink:href="#m728421d6d4" y="73.3165714286"/>
      </g>
     </g>
     <g id="line2d_35">
      <g>
       <use style="stroke:#000000;stroke-width:0.5;" x="576.0" xlink:href="#mcb0005524f" y="73.3165714286"/>
      </g>
     </g>
     <g id="text_17">
      <!-- 200 -->
      <g transform="translate(9.98225 76.6681339286)scale(0.12 -0.12)">
       <use xlink:href="#Verdana-32"/>
       <use x="63.57421875" xlink:href="#Verdana-30"/>
       <use x="127.1484375" xlink:href="#Verdana-30"/>
      </g>
     </g>
    </g>
    <g id="ytick_8">
     <g id="line2d_36">
      <g>
       <use style="stroke:#000000;stroke-width:0.5;" x="35.136" xlink:href="#m728421d6d4" y="17.712"/>
      </g>
     </g>
     <g id="line2d_37">
      <g>
       <use style="stroke:#000000;stroke-width:0.5;" x="576.0" xlink:href="#mcb0005524f" y="17.712"/>
      </g>
     </g>
     <g id="text_18">
      <!-- 250 -->
      <g transform="translate(9.98225 21.0635625)scale(0.12 -0.12)">
       <use xlink:href="#Verdana-32"/>
       <use x="63.57421875" xlink:href="#Verdana-35"/>
       <use x="127.1484375" xlink:href="#Verdana-30"/>
      </g>
     </g>
    </g>
   </g>
   <g id="patch_3">
    <path d="
M35.136 17.712
L576 17.712" style="fill:none;stroke:#000000;"/>
   </g>
   <g id="patch_4">
    <path d="
M576 406.944
L576 17.712" style="fill:none;stroke:#000000;"/>
   </g>
   <g id="patch_5">
    <path d="
M35.136 406.944
L576 406.944" style="fill:none;stroke:#000000;"/>
   </g>
   <g id="patch_6">
    <path d="
M35.136 406.944
L35.136 17.712" style="fill:none;stroke:#000000;"/>
   </g>
  </g>
 </g>
 <defs>
  <clipPath id="p8c61e37774">
   <rect height="389.232" width="540.864" x="35.136" y="17.712"/>
  </clipPath>
 </defs>
</svg>
