<?xml version="1.0" encoding="utf-8" standalone="no"?>
<!DOCTYPE svg PUBLIC "-//W3C//DTD SVG 1.1//EN"
  "http://www.w3.org/Graphics/SVG/1.1/DTD/svg11.dtd">
<!-- Created with matplotlib (http://matplotlib.org/) -->
<svg height="432pt" version="1.1" viewBox="0 0 576 432" width="576pt" xmlns="http://www.w3.org/2000/svg" xmlns:xlink="http://www.w3.org/1999/xlink">
 <defs>
  <style type="text/css">
*{stroke-linecap:butt;stroke-linejoin:round;}
  </style>
 </defs>
 <g id="figure_1">
  <g id="patch_1">
   <path d="
M0 432
L576 432
L576 0
L0 0
z
" style="fill:#ffffff;"/>
  </g>
  <g id="axes_1">
   <g id="patch_2">
    <path d="
M72 388.8
L518.4 388.8
L518.4 43.2
L72 43.2
z
" style="fill:#ffffff;"/>
   </g>
   <g id="line2d_1">
    <path clip-path="url(#p7ff5b81e1d)" d="
M429.12 388.8
L429.168 386.062
L429.115 384.748
L429.059 382.85
L428.15 377.138
L428.116 373.851
L428.575 366.248
L429.669 357.132
L430.41 345.967
L430.421 340.71
L430.515 337.003
L430.604 332.482
L430.727 327.986
L430.68 324.843
L430.875 321.513
L431.225 317.619
L431.429 313.932
L431.454 308.903
L430.753 303.109
L430.583 298.963
L430.908 292.95
L431.393 287.699
L431.875 277.638
L431.79 272.049
L431.686 271.077
L431.677 268.464
L431.641 264.631
L431.561 255.07
L430.919 250.317
L430.634 239.378
L431.31 229.603
L431.477 227.023
L431.545 224.291
L431.247 220.585
L430.72 217.346
L429.966 214.168
L428.864 210.91
L426.653 205.138
L423.929 197.19
L423.736 196.155
L422.944 187.412
L422.229 183.4
L421.689 180.443
L421.451 179.543
L418.547 170.986
L414.207 165.162
L411.197 161.658
L404.652 155.924
L396.85 149.969
L388.571 143.368
L383.924 139.991
L377.592 135.952
L368.652 131.079
L363.654 128.667
L356.094 125.46
L351.723 123.899
L348.922 123.004
L339.584 120.372
L332.415 118.627
L325.679 117.131
L321.656 116.366
L318.967 115.96
L313.733 115.455
L306.599 115.14
L298.235 114.96
L281.187 115
L261.262 115.074
L241.43 114.956
L230.795 115.03
L226.17 115.22
L222.787 115.514
L219.242 116.129
L217.728 116.512
L216.545 116.95
L215.13 117.631
L213.411 118.881
L212.884 119.479
L212.393 120.25
L212.201 120.698
L211.928 122.229
L211.832 125.454
L212.097 128.732
L213.363 136.839
L213.376 137.323
L213.881 141.001
L214.071 142.973
L214.226 144.91
L214.605 151.698
L214.751 154.836
L215.055 157.708
L216.456 167.486
L216.89 168.954
L217.636 170.275
L218.537 171.482
L222.479 173.056
L223.032 173.463
L226.862 174.398
L229.589 174.713
L232.364 174.834
L242.472 174.796
L244.566 174.601
L245.494 174.258
L245.85 173.867
L246.181 173.13
L246.701 171.049
L250.138 169.802
L252.357 169.687
L253.704 169.808
L254.303 170.097
L254.551 170.569
L254.798 171.801
L254.715 172.661
L254.321 175.089
L254.033 176.65
L253.649 177.065
L253.448 177.171
L247.05 178.666
L241.358 178.824
L240.251 178.91
L237.023 179.932
L236.27 180.185
L233.865 180.569
L230.521 180.752
L226.596 180.686
L218.501 180.536
L216.951 180.712
L215.851 181.036
L214.895 181.594
L214.401 182.117
L213.799 183.96
L213.592 185.803
L213.51 188.1
L212.22 198.55
L211.706 201.559
L211.06 203.748
L210.52 205.809
L210.16 208.398
L209.421 211.617
L209.008 214.248
L208.408 217.712
L207.551 223.085
L207.149 224.693
L206.551 227.782
L206.219 228.523
L205.926 228.803
L205.351 229.073
L202.722 230.016
L194.464 234.163
L192.272 235.686
L191.765 236.354
L191.061 237.868
L190.455 239.109
L189.781 239.771
L189.124 240.193
L188.1 240.593
L187.543 240.741
L185.611 241.044
L183.229 241.153
L177.756 241.106
L176.479 240.887
L175.85 240.547
L175.318 239.744
L175.245 239.147
L175.463 238.287
L175.909 236.982
L176.046 235.882
L176.246 233.027
L176.228 232.361
L176.091 232.076
L175.623 231.703
L174.708 231.365
L173.166 231.031
L170.956 230.826
L166.209 230.652
L153.835 230.326
L152.386 230.016
L150.298 229.268
L148.35 228.245
L147.44 227.504
L147.035 226.932
L146.848 226.131
L146.802 225.25
L147.006 223.623
L147.73 219.92
L147.766 218.879
L148.338 215.758
L148.853 213.745
L149.137 212.951
L149.677 212.24
L150.97 210.926
L151.311 210.261
L151.517 209.307
L151.969 207.422
L152.467 205.064
L153.225 199.961
L153.377 198.24
L153.236 197.794
L152.732 197.117
L151.869 196.11
L151.59 195.394
L151.531 194.679
L151.652 193.709
L152.323 191.461
L152.809 189.039
L152.865 188.674
L152.414 187.96
L151.695 187.087
L151.464 186.409
L151.459 185.506
L151.79 183.941
L152.373 182.194
L153.205 179.964
L155.406 170.53
L156.514 164.219
L156.931 162.445
L157.225 160.868
L158.039 160.063
L158.742 159.292
L159.015 158.662
L159.098 158.031
L159.079 156.327
L159.303 155.849
L160.218 154.562
L161.217 153.607
L163.208 151.786
L163.616 150.528
L164.282 147.643
L164.955 145.098
L165.512 142.541
L166.249 139.073
L167.44 133.446
L168.387 128.615
L169.139 125.683
L170.245 122.037
L171.356 117.933
L171.737 116.2
L172.395 112.971
L172.674 111.843
L173.989 108.264
L174.544 104.505
L175.275 103.607
L175.496 102.833
L175.731 100.745
L176.103 99.311
L176.445 98.072
L176.849 96.266
L177.229 95.8071
L177.989 95.4008
L179.152 95.1145
L182.196 94.6498
L183.615 94.0033
L185.763 92.8291
L186.897 92.5039
L188.671 92.2635
L189.948 92.2478
L190.659 92.5051
L192.506 94.0081
L192.968 94.7298
L193.773 96.0983
L194.551 96.8125
L197.201 98.3014
L202.466 101.317
L203.449 101.916
L204.771 102.404
L206.456 102.782
L210.298 103.223
L216.473 103.644
L222.097 103.843
L224.478 103.856
L225.671 104.162
L226.267 104.547
L227.253 105.365
L228.178 105.783
L229.669 106.083
L231.526 106.234
L233.704 106.135
L235.573 105.816
L238.083 105.114
L239.767 104.362
L240.501 103.887
L245.263 100.617
L246.957 99.5413
L248.417 98.2298
L249.356 97.1463
L249.806 96.2885
L251.531 92.3959
L252.529 90.2652
L252.88 88.9853
L252.93 88.2746
L252.678 87.2823
L252.333 86.2214
L252.146 84.4539
L252.017 83.3633
L251.645 82.2418
L249.914 78.3398
L248.952 77.0047
L245.494 73.2903
L243.988 71.0615
L243.556 70.0629
L243.412 69.1138
L243.554 66.9535
L243.77 65.6309
L244.435 63.5759
L245.43 60.9176
L247.145 56.6728
L247.39 55.5887
L247.31 55.1003
L246.801 54.5042
L244.755 53.2308
L242.903 52.3523
L241.198 51.8018
L239.68 51.5744
L236.174 51.2769
L230.892 51.0928
L223.357 50.8244
L214.236 50.3857
L213.034 50.6428
L211.449 51.1736
L210.347 51.722
L209.396 52.4711
L208.037 54.1909
L206.99 55.5642
L205.124 57.3898
L203.794 58.4056
L202.52 59.0424
L201.011 59.4758
L199.125 59.7303
L196.189 59.8056
L190.583 59.668
L188.415 59.4083
L186.821 59.0084
L185.596 58.4949
L185.032 58.025
L184.662 57.3465
L184.563 56.5228
L184.726 55.1651
L185.346 52.8684
L186.172 50.7541
L186.743 50.0897
L187.689 49.627
L188.91 49.2739
L191.14 48.9325
L194.078 48.7448
L199.304 48.7207
L205.853 48.8986
L235.334 50.0071
L239.473 49.8984
L242.52 49.5746
L247.71 48.5902
L250.164 48.1674
L253.011 47.8954
L256.667 47.8589
L263.902 48.1058
L278.677 48.8326
L285.409 49.1695
L301.357 49.7233
L309.22 50.2256
L319.438 50.6241
L348.174 52.2546
L355.056 52.6296
L362.058 52.9497
L369.583 52.8841
L375.833 53.1902
L390.08 54.1936
L397.101 54.3092
L403.444 54.1064
L410.206 54.3219
L415.521 54.4602
L421.422 54.6415
L432.962 55.1944
L435.728 55.4839
L438.608 56.0835
L440.966 56.6589
L443.822 56.9904
L449.129 57.2913
L461.943 57.8478
L466.893 58.0782
L471.13 57.9706
L473.85 57.9535
L476.871 58.1193
L481.374 58.5732
L483.304 58.9232
L485.251 59.4844
L486.96 60.2462
L487.961 60.9464
L488.616 61.6699
L489.121 62.5569
L489.444 63.614
L489.573 64.8175
L489.444 66.0959
L488.825 70.9721
L487.944 74.9796
L487.477 77.4039
L487.01 79.4262
L486.044 82.2959
L485.256 85.4559
L485.35 86.8844
L485.475 87.6076
L485.426 88.8132
L485.168 89.6414
L484.66 91.9954
L484.43 93.8377
L484.092 97.95
L484.161 99.0173
L484.003 100.34
L483.808 101.374
L483.791 102.864
L483.284 105.242
L482.893 106.754
L482.265 110.984
L482.424 112.666
L482.275 114.2
L481.616 117.786
L480.951 119.926
L480.127 122.516
L479.615 125.156
L479.238 127.094
L477.482 136.918
L477.297 138.182
L477.191 141.644
L476.894 142.992
L476.479 145.588
L476.345 146.825
L475.959 148.244
L475.494 149.187
L473.701 152.307
L472.562 154.887
L472.216 155.543
L470.573 157.909
L470.369 158.282
L469.828 160.141
L468.984 163.839
L468.682 165.821
L468.333 168.263
L468.077 169.702
L467.937 170.252
L467.067 174.987
L466.621 176.906
L463.073 197.437
L462.702 199.857
L462.579 200.843
L462.191 202.944
L461.372 206.301
L460.712 210.48
L460.924 211.269
L461.301 212.038
L462.036 213.135
L462.365 214.766
L462.431 216.298
L462.269 217.353
L462.081 218.815
L462.015 220.673
L460.954 225.9
L459.522 229.968
L458.811 233.234
L458.075 235.844
L455.774 248.01
L455.791 249.139
L456.043 249.792
L456.611 250.638
L457.55 251.834
L458.102 253.03
L458.158 254.001
L457.775 255.282
L456.689 258.598
L456.192 261.892
L456.015 263.173
L455.792 263.925
L455.744 264.793
L455.333 268.398
L455.294 268.884
L455.316 269.8
L455.696 271.099
L455.705 272.16
L455.171 272.975
L453.704 273.874
L451.844 274.719
L449.952 275.232
L447.386 275.661
L444.739 275.775
L440.294 275.638
L427.805 275.061
L427.805 275.061" style="fill:none;stroke:#0000ff;stroke-linecap:square;"/>
   </g>
   <g id="matplotlib.axis_1">
    <g id="xtick_1">
     <g id="line2d_2">
      <defs>
       <path d="
M0 0
L0 -4" id="m93b0483c22" style="stroke:#000000;stroke-width:0.5;"/>
      </defs>
      <g>
       <use style="stroke:#000000;stroke-width:0.5;" x="72.0" xlink:href="#m93b0483c22" y="388.8"/>
      </g>
     </g>
     <g id="line2d_3">
      <defs>
       <path d="
M0 0
L0 4" id="m741efc42ff" style="stroke:#000000;stroke-width:0.5;"/>
      </defs>
      <g>
       <use style="stroke:#000000;stroke-width:0.5;" x="72.0" xlink:href="#m741efc42ff" y="43.2"/>
      </g>
     </g>
     <g id="text_1">
      <!-- −20 -->
      <defs>
       <path d="
M56.9844 36.375
Q56.9844 16.7969 50.8594 7.64062
Q44.7344 -1.51562 31.8438 -1.51562
Q18.75 -1.51562 12.7188 7.76562
Q6.6875 17.0469 6.6875 36.2812
Q6.6875 55.6719 12.7812 64.9219
Q18.8906 74.1719 31.8438 74.1719
Q44.9219 74.1719 50.9531 64.7656
Q56.9844 55.375 56.9844 36.375
M44.1406 14.2031
Q45.8438 18.1719 46.4531 23.5156
Q47.0781 28.8594 47.0781 36.375
Q47.0781 43.7969 46.4531 49.2656
Q45.8438 54.7344 44.0938 58.5469
Q42.3906 62.3125 39.4219 64.2031
Q36.4688 66.1094 31.8438 66.1094
Q27.25 66.1094 24.2344 64.2031
Q21.2344 62.3125 19.4844 58.4531
Q17.8281 54.8281 17.2188 49.0156
Q16.6094 43.2188 16.6094 36.2812
Q16.6094 28.6562 17.1406 23.5312
Q17.6719 18.4062 19.4375 14.3594
Q21.0469 10.5469 24 8.54688
Q26.9531 6.54688 31.8438 6.54688
Q36.4219 6.54688 39.4531 8.45312
Q42.4844 10.3594 44.1406 14.2031" id="Verdana-30"/>
       <path d="
M71.0938 27.9375
L10.75 27.9375
L10.75 35.75
L71.0938 35.75
z
" id="Verdana-2212"/>
       <path d="
M57.0781 0
L7.85938 0
L7.85938 10.2031
Q12.9844 14.5938 18.1406 18.9844
Q23.2969 23.3906 27.7344 27.7344
Q37.1094 36.8125 40.5781 42.1562
Q44.0469 47.5156 44.0469 53.7188
Q44.0469 59.375 40.3125 62.5625
Q36.5781 65.7656 29.8906 65.7656
Q25.4375 65.7656 20.2656 64.2031
Q15.0938 62.6406 10.1562 59.4219
L9.67188 59.4219
L9.67188 69.6719
Q13.1406 71.3906 18.9219 72.7969
Q24.7031 74.2188 30.125 74.2188
Q41.3125 74.2188 47.6562 68.8125
Q54 63.4219 54 54.2031
Q54 50.0469 52.9531 46.4531
Q51.9062 42.875 49.8594 39.6562
Q47.9531 36.625 45.3906 33.6875
Q42.8281 30.7656 39.1562 27.2031
Q33.9375 22.0781 28.3594 17.2656
Q22.7969 12.4531 17.9688 8.34375
L57.0781 8.34375
z
" id="Verdana-32"/>
      </defs>
      <g transform="translate(60.500625 401.918125)scale(0.12 -0.12)">
       <use xlink:href="#Verdana-2212"/>
       <use x="81.8359375" xlink:href="#Verdana-32"/>
       <use x="145.41015625" xlink:href="#Verdana-30"/>
      </g>
     </g>
    </g>
    <g id="xtick_2">
     <g id="line2d_4">
      <g>
       <use style="stroke:#000000;stroke-width:0.5;" x="161.28" xlink:href="#m93b0483c22" y="388.8"/>
      </g>
     </g>
     <g id="line2d_5">
      <g>
       <use style="stroke:#000000;stroke-width:0.5;" x="161.28" xlink:href="#m741efc42ff" y="43.2"/>
      </g>
     </g>
     <g id="text_2">
      <!-- −15 -->
      <defs>
       <path d="
M52.9375 0
L13.5781 0
L13.5781 7.42188
L28.7188 7.42188
L28.7188 56.1562
L13.5781 56.1562
L13.5781 62.7969
Q16.6562 62.7969 20.1719 63.2969
Q23.6875 63.8125 25.4844 64.7969
Q27.7344 66.0156 29.0312 67.8906
Q30.3281 69.7812 30.5156 72.9531
L38.0938 72.9531
L38.0938 7.42188
L52.9375 7.42188
z
" id="Verdana-31"/>
       <path d="
M56.5 23.0938
Q56.5 18.0156 54.6406 13.375
Q52.7812 8.73438 49.5625 5.5625
Q46.0469 2.15625 41.1875 0.3125
Q36.3281 -1.51562 29.9375 -1.51562
Q23.9688 -1.51562 18.4531 -0.265625
Q12.9375 0.984375 9.125 2.73438
L9.125 13.0312
L9.8125 13.0312
Q13.8125 10.5 19.1875 8.71875
Q24.5625 6.9375 29.7344 6.9375
Q33.2031 6.9375 36.4531 7.90625
Q39.7031 8.89062 42.2344 11.3281
Q44.3906 13.4219 45.4844 16.3438
Q46.5781 19.2812 46.5781 23.1406
Q46.5781 26.9062 45.2812 29.4844
Q44 32.0781 41.7031 33.6406
Q39.1562 35.5 35.5156 36.25
Q31.8906 37.0156 27.3906 37.0156
Q23.0938 37.0156 19.1094 36.4219
Q15.1406 35.8438 12.25 35.25
L12.25 72.7031
L56 72.7031
L56 64.1562
L21.6875 64.1562
L21.6875 44.8281
Q23.7812 45.0156 25.9688 45.1094
Q28.1719 45.2188 29.7812 45.2188
Q35.6875 45.2188 40.125 44.2188
Q44.5781 43.2188 48.2969 40.6719
Q52.2031 37.9844 54.3438 33.7344
Q56.5 29.5 56.5 23.0938" id="Verdana-35"/>
      </defs>
      <g transform="translate(149.8096875 401.918125)scale(0.12 -0.12)">
       <use xlink:href="#Verdana-2212"/>
       <use x="81.8359375" xlink:href="#Verdana-31"/>
       <use x="145.41015625" xlink:href="#Verdana-35"/>
      </g>
     </g>
    </g>
    <g id="xtick_3">
     <g id="line2d_6">
      <g>
       <use style="stroke:#000000;stroke-width:0.5;" x="250.56" xlink:href="#m93b0483c22" y="388.8"/>
      </g>
     </g>
     <g id="line2d_7">
      <g>
       <use style="stroke:#000000;stroke-width:0.5;" x="250.56" xlink:href="#m741efc42ff" y="43.2"/>
      </g>
     </g>
     <g id="text_3">
      <!-- −10 -->
      <g transform="translate(239.060625 401.918125)scale(0.12 -0.12)">
       <use xlink:href="#Verdana-2212"/>
       <use x="81.8359375" xlink:href="#Verdana-31"/>
       <use x="145.41015625" xlink:href="#Verdana-30"/>
      </g>
     </g>
    </g>
    <g id="xtick_4">
     <g id="line2d_8">
      <g>
       <use style="stroke:#000000;stroke-width:0.5;" x="339.84" xlink:href="#m93b0483c22" y="388.8"/>
      </g>
     </g>
     <g id="line2d_9">
      <g>
       <use style="stroke:#000000;stroke-width:0.5;" x="339.84" xlink:href="#m741efc42ff" y="43.2"/>
      </g>
     </g>
     <g id="text_4">
      <!-- −5 -->
      <g transform="translate(332.184375 401.918125)scale(0.12 -0.12)">
       <use xlink:href="#Verdana-2212"/>
       <use x="81.8359375" xlink:href="#Verdana-35"/>
      </g>
     </g>
    </g>
    <g id="xtick_5">
     <g id="line2d_10">
      <g>
       <use style="stroke:#000000;stroke-width:0.5;" x="429.12" xlink:href="#m93b0483c22" y="388.8"/>
      </g>
     </g>
     <g id="line2d_11">
      <g>
       <use style="stroke:#000000;stroke-width:0.5;" x="429.12" xlink:href="#m741efc42ff" y="43.2"/>
      </g>
     </g>
     <g id="text_5">
      <!-- 0 -->
      <g transform="translate(426.1021875 401.918125)scale(0.12 -0.12)">
       <use xlink:href="#Verdana-30"/>
      </g>
     </g>
    </g>
    <g id="xtick_6">
     <g id="line2d_12">
      <g>
       <use style="stroke:#000000;stroke-width:0.5;" x="518.4" xlink:href="#m93b0483c22" y="388.8"/>
      </g>
     </g>
     <g id="line2d_13">
      <g>
       <use style="stroke:#000000;stroke-width:0.5;" x="518.4" xlink:href="#m741efc42ff" y="43.2"/>
      </g>
     </g>
     <g id="text_6">
      <!-- 5 -->
      <g transform="translate(515.5575 401.918125)scale(0.12 -0.12)">
       <use xlink:href="#Verdana-35"/>
      </g>
     </g>
    </g>
   </g>
   <g id="matplotlib.axis_2">
    <g id="ytick_1">
     <g id="line2d_14">
      <defs>
       <path d="
M0 0
L4 0" id="m728421d6d4" style="stroke:#000000;stroke-width:0.5;"/>
      </defs>
      <g>
       <use style="stroke:#000000;stroke-width:0.5;" x="72.0" xlink:href="#m728421d6d4" y="388.8"/>
      </g>
     </g>
     <g id="line2d_15">
      <defs>
       <path d="
M0 0
L-4 0" id="mcb0005524f" style="stroke:#000000;stroke-width:0.5;"/>
      </defs>
      <g>
       <use style="stroke:#000000;stroke-width:0.5;" x="518.4" xlink:href="#mcb0005524f" y="388.8"/>
      </g>
     </g>
     <g id="text_7">
      <!-- 0 -->
      <g transform="translate(61.964375 392.1515625)scale(0.12 -0.12)">
       <use xlink:href="#Verdana-30"/>
      </g>
     </g>
    </g>
    <g id="ytick_2">
     <g id="line2d_16">
      <g>
       <use style="stroke:#000000;stroke-width:0.5;" x="72.0" xlink:href="#m728421d6d4" y="350.4"/>
      </g>
     </g>
     <g id="line2d_17">
      <g>
       <use style="stroke:#000000;stroke-width:0.5;" x="518.4" xlink:href="#mcb0005524f" y="350.4"/>
      </g>
     </g>
     <g id="text_8">
      <!-- 5 -->
      <g transform="translate(62.315 353.7515625)scale(0.12 -0.12)">
       <use xlink:href="#Verdana-35"/>
      </g>
     </g>
    </g>
    <g id="ytick_3">
     <g id="line2d_18">
      <g>
       <use style="stroke:#000000;stroke-width:0.5;" x="72.0" xlink:href="#m728421d6d4" y="312.0"/>
      </g>
     </g>
     <g id="line2d_19">
      <g>
       <use style="stroke:#000000;stroke-width:0.5;" x="518.4" xlink:href="#mcb0005524f" y="312.0"/>
      </g>
     </g>
     <g id="text_9">
      <!-- 10 -->
      <g transform="translate(55.161875 315.3515625)scale(0.12 -0.12)">
       <use xlink:href="#Verdana-31"/>
       <use x="63.57421875" xlink:href="#Verdana-30"/>
      </g>
     </g>
    </g>
    <g id="ytick_4">
     <g id="line2d_20">
      <g>
       <use style="stroke:#000000;stroke-width:0.5;" x="72.0" xlink:href="#m728421d6d4" y="273.6"/>
      </g>
     </g>
     <g id="line2d_21">
      <g>
       <use style="stroke:#000000;stroke-width:0.5;" x="518.4" xlink:href="#mcb0005524f" y="273.6"/>
      </g>
     </g>
     <g id="text_10">
      <!-- 15 -->
      <g transform="translate(55.22 276.9515625)scale(0.12 -0.12)">
       <use xlink:href="#Verdana-31"/>
       <use x="63.57421875" xlink:href="#Verdana-35"/>
      </g>
     </g>
    </g>
    <g id="ytick_5">
     <g id="line2d_22">
      <g>
       <use style="stroke:#000000;stroke-width:0.5;" x="72.0" xlink:href="#m728421d6d4" y="235.2"/>
      </g>
     </g>
     <g id="line2d_23">
      <g>
       <use style="stroke:#000000;stroke-width:0.5;" x="518.4" xlink:href="#mcb0005524f" y="235.2"/>
      </g>
     </g>
     <g id="text_11">
      <!-- 20 -->
      <g transform="translate(54.475625 238.5515625)scale(0.12 -0.12)">
       <use xlink:href="#Verdana-32"/>
       <use x="63.57421875" xlink:href="#Verdana-30"/>
      </g>
     </g>
    </g>
    <g id="ytick_6">
     <g id="line2d_24">
      <g>
       <use style="stroke:#000000;stroke-width:0.5;" x="72.0" xlink:href="#m728421d6d4" y="196.8"/>
      </g>
     </g>
     <g id="line2d_25">
      <g>
       <use style="stroke:#000000;stroke-width:0.5;" x="518.4" xlink:href="#mcb0005524f" y="196.8"/>
      </g>
     </g>
     <g id="text_12">
      <!-- 25 -->
      <g transform="translate(54.53375 200.1515625)scale(0.12 -0.12)">
       <use xlink:href="#Verdana-32"/>
       <use x="63.57421875" xlink:href="#Verdana-35"/>
      </g>
     </g>
    </g>
    <g id="ytick_7">
     <g id="line2d_26">
      <g>
       <use style="stroke:#000000;stroke-width:0.5;" x="72.0" xlink:href="#m728421d6d4" y="158.4"/>
      </g>
     </g>
     <g id="line2d_27">
      <g>
       <use style="stroke:#000000;stroke-width:0.5;" x="518.4" xlink:href="#mcb0005524f" y="158.4"/>
      </g>
     </g>
     <g id="text_13">
      <!-- 30 -->
      <defs>
       <path d="
M50.6875 35.0156
Q53.0312 32.9062 54.5469 29.7344
Q56.0625 26.5625 56.0625 21.5312
Q56.0625 16.5469 54.25 12.3906
Q52.4375 8.25 49.1719 5.17188
Q45.5156 1.76562 40.5469 0.125
Q35.5938 -1.51562 29.6875 -1.51562
Q23.6406 -1.51562 17.7812 -0.0625
Q11.9219 1.375 8.15625 3.07812
L8.15625 13.2812
L8.89062 13.2812
Q13.0312 10.5469 18.6406 8.73438
Q24.2656 6.9375 29.5 6.9375
Q32.5625 6.9375 36.0312 7.95312
Q39.5 8.98438 41.6562 10.9844
Q43.8906 13.1406 44.9844 15.7188
Q46.0938 18.3125 46.0938 22.2656
Q46.0938 26.1719 44.8438 28.7344
Q43.6094 31.2969 41.4062 32.7656
Q39.2031 34.2812 36.0781 34.8438
Q32.9531 35.4062 29.3438 35.4062
L24.9531 35.4062
L24.9531 43.5
L28.375 43.5
Q35.7969 43.5 40.2031 46.5938
Q44.625 49.7031 44.625 55.6719
Q44.625 58.2969 43.5 60.2656
Q42.3906 62.25 40.375 63.5312
Q38.2812 64.7969 35.8906 65.2812
Q33.5 65.7656 30.4688 65.7656
Q25.8281 65.7656 20.5938 64.1094
Q15.375 62.4531 10.75 59.4219
L10.25 59.4219
L10.25 69.625
Q13.7188 71.3438 19.5 72.7812
Q25.2969 74.2188 30.7188 74.2188
Q36.0312 74.2188 40.0781 73.2344
Q44.1406 72.2656 47.4062 70.125
Q50.9219 67.7812 52.7344 64.4531
Q54.5469 61.1406 54.5469 56.6875
Q54.5469 50.6406 50.2656 46.125
Q46 41.6094 40.1875 40.4375
L40.1875 39.75
Q42.5312 39.3594 45.5469 38.1094
Q48.5781 36.8594 50.6875 35.0156" id="Verdana-33"/>
      </defs>
      <g transform="translate(54.51125 161.7515625)scale(0.12 -0.12)">
       <use xlink:href="#Verdana-33"/>
       <use x="63.57421875" xlink:href="#Verdana-30"/>
      </g>
     </g>
    </g>
    <g id="ytick_8">
     <g id="line2d_28">
      <g>
       <use style="stroke:#000000;stroke-width:0.5;" x="72.0" xlink:href="#m728421d6d4" y="120.0"/>
      </g>
     </g>
     <g id="line2d_29">
      <g>
       <use style="stroke:#000000;stroke-width:0.5;" x="518.4" xlink:href="#mcb0005524f" y="120.0"/>
      </g>
     </g>
     <g id="text_14">
      <!-- 35 -->
      <g transform="translate(54.569375 123.3515625)scale(0.12 -0.12)">
       <use xlink:href="#Verdana-33"/>
       <use x="63.57421875" xlink:href="#Verdana-35"/>
      </g>
     </g>
    </g>
    <g id="ytick_9">
     <g id="line2d_30">
      <g>
       <use style="stroke:#000000;stroke-width:0.5;" x="72.0" xlink:href="#m728421d6d4" y="81.6"/>
      </g>
     </g>
     <g id="line2d_31">
      <g>
       <use style="stroke:#000000;stroke-width:0.5;" x="518.4" xlink:href="#mcb0005524f" y="81.6"/>
      </g>
     </g>
     <g id="text_15">
      <!-- 40 -->
      <defs>
       <path d="
M58.7344 20.4531
L47.9531 20.4531
L47.9531 0
L38.5781 0
L38.5781 20.4531
L3.76562 20.4531
L3.76562 31.6875
L38.9688 72.7031
L47.9531 72.7031
L47.9531 28.2656
L58.7344 28.2656
z

M38.5781 28.2656
L38.5781 61.0781
L10.4062 28.2656
z
" id="Verdana-34"/>
      </defs>
      <g transform="translate(53.984375 84.9515625)scale(0.12 -0.12)">
       <use xlink:href="#Verdana-34"/>
       <use x="63.57421875" xlink:href="#Verdana-30"/>
      </g>
     </g>
    </g>
    <g id="ytick_10">
     <g id="line2d_32">
      <g>
       <use style="stroke:#000000;stroke-width:0.5;" x="72.0" xlink:href="#m728421d6d4" y="43.2"/>
      </g>
     </g>
     <g id="line2d_33">
      <g>
       <use style="stroke:#000000;stroke-width:0.5;" x="518.4" xlink:href="#mcb0005524f" y="43.2"/>
      </g>
     </g>
     <g id="text_16">
      <!-- 45 -->
      <g transform="translate(54.0425 46.5515625)scale(0.12 -0.12)">
       <use xlink:href="#Verdana-34"/>
       <use x="63.57421875" xlink:href="#Verdana-35"/>
      </g>
     </g>
    </g>
   </g>
   <g id="patch_3">
    <path d="
M72 43.2
L518.4 43.2" style="fill:none;stroke:#000000;"/>
   </g>
   <g id="patch_4">
    <path d="
M518.4 388.8
L518.4 43.2" style="fill:none;stroke:#000000;"/>
   </g>
   <g id="patch_5">
    <path d="
M72 388.8
L518.4 388.8" style="fill:none;stroke:#000000;"/>
   </g>
   <g id="patch_6">
    <path d="
M72 388.8
L72 43.2" style="fill:none;stroke:#000000;"/>
   </g>
  </g>
 </g>
 <defs>
  <clipPath id="p7ff5b81e1d">
   <rect height="345.6" width="446.4" x="72.0" y="43.2"/>
  </clipPath>
 </defs>
</svg>
